<svg width="19" height="19" viewBox="0 0 19 19" fill="none" xmlns="http://www.w3.org/2000/svg">
<path d="M7.25202 8.60533C7.17285 8.59742 7.07785 8.59742 6.99077 8.60533C5.1066 8.542 3.61035 6.99825 3.61035 5.09825C3.61035 3.15867 5.17785 1.58325 7.12535 1.58325C9.06494 1.58325 10.6404 3.15867 10.6404 5.09825C10.6324 6.99825 9.13619 8.542 7.25202 8.60533Z" stroke="#09394D" stroke-width="1.5" stroke-linecap="round" stroke-linejoin="round"/>
<path opacity="0.4" d="M12.9916 3.16675C14.5274 3.16675 15.7624 4.40966 15.7624 5.93758C15.7624 7.43383 14.5749 8.653 13.0945 8.70841C13.0312 8.7005 12.9599 8.7005 12.8887 8.70841" stroke="#09394D" stroke-width="1.5" stroke-linecap="round" stroke-linejoin="round"/>
<path d="M3.29332 11.5267C1.37749 12.8092 1.37749 14.8992 3.29332 16.1738C5.4704 17.6305 9.04082 17.6305 11.2179 16.1738C13.1337 14.8913 13.1337 12.8013 11.2179 11.5267C9.04874 10.078 5.47832 10.078 3.29332 11.5267Z" stroke="#09394D" stroke-width="1.5" stroke-linecap="round" stroke-linejoin="round"/>
<path opacity="0.4" d="M14.5195 15.8333C15.0895 15.7145 15.6279 15.4849 16.0712 15.1445C17.3062 14.2183 17.3062 12.6903 16.0712 11.7641C15.6358 11.4316 15.1054 11.2099 14.5433 11.0833" stroke="#09394D" stroke-width="1.5" stroke-linecap="round" stroke-linejoin="round"/>
</svg>
