<svg width="16" height="16" viewBox="0 0 16 16" fill="none" xmlns="http://www.w3.org/2000/svg">
<g clip-path="url(#clip0_768_28890)">
<path d="M7.97085 0C7.99168 0 8.01252 0 8.03335 0C8.05835 0.025 8.07918 0.0541667 8.10418 0.075C9.12502 0.829167 10.1459 1.58333 11.1667 2.33333C11.1959 2.35417 11.2333 2.375 11.2875 2.40417C11.2875 1.92083 11.2875 1.45833 11.2875 1.00417C12.2292 1.00417 13.1542 1.00417 14.0917 1.00417C14.0917 1.06667 14.0917 1.125 14.0917 1.17917C14.0917 2.23333 14.0917 3.29167 14.0917 4.34583C14.0917 4.44167 14.1125 4.50417 14.1959 4.56667C14.7625 4.97917 15.3292 5.39583 15.8917 5.8125C15.925 5.8375 15.9625 5.85 16 5.86667C16 5.87917 16 5.8875 16 5.9C15.8167 6.14583 15.6334 6.3875 15.4417 6.64167C15.3042 6.54583 15.1792 6.45417 15.0292 6.34583C15.0292 9.58333 15.0292 12.7875 15.0292 15.9917C10.3417 15.9917 5.65418 15.9917 0.966683 15.9917C0.966683 12.7875 0.966683 9.57917 0.966683 6.34583C0.812516 6.45417 0.687516 6.54583 0.554183 6.64167C0.362516 6.3875 0.179183 6.14167 -0.00415039 5.9C-0.00415039 5.8875 -0.00415039 5.87917 -0.00415039 5.86667C0.0500163 5.8375 0.104183 5.8125 0.154183 5.775C2.65002 3.94583 5.14168 2.10833 7.63335 0.270833C7.75002 0.1875 7.85835 0.0916667 7.97085 0ZM14.0958 15.0542C14.0958 15.0042 14.0958 14.9625 14.0958 14.9208C14.0958 11.875 14.0958 8.82917 14.1 5.78333C14.1 5.67917 14.0542 5.625 13.9792 5.57083C12.0333 4.1375 10.0875 2.70833 8.15002 1.27083C8.03752 1.1875 7.97085 1.19167 7.85835 1.275C5.91252 2.70833 3.96668 4.14167 2.02085 5.57083C1.92918 5.6375 1.90418 5.70833 1.90418 5.81667C1.90835 8.8375 1.90835 11.8583 1.90835 14.8792C1.90835 14.9333 1.90835 14.9917 1.90835 15.0542C5.97085 15.0542 10.0208 15.0542 14.0958 15.0542ZM13.15 1.94583C12.8375 1.94583 12.5333 1.94583 12.2208 1.94583C12.2208 2.32083 12.2208 2.68333 12.2208 3.04583C12.2208 3.07917 12.2375 3.12083 12.2584 3.1375C12.5459 3.35417 12.8375 3.56667 13.15 3.79583C13.15 3.16667 13.15 2.5625 13.15 1.94583Z" fill="#09394D"/>
<path d="M3.78757 14.1208C3.46257 14.1208 3.16673 14.1208 2.8584 14.1208C2.8584 11.6291 2.8584 9.13747 2.8584 6.6333C3.1584 6.6333 3.46257 6.6333 3.77923 6.6333C3.77923 7.24997 3.77923 7.86247 3.77923 8.49997C3.8459 8.49997 3.90007 8.49997 3.95423 8.49997C4.35423 8.49997 4.75423 8.4958 5.1584 8.49997C6.1209 8.5083 6.76673 9.3333 6.5459 10.2708C6.53757 10.3 6.53757 10.3333 6.52923 10.375C8.73757 10.375 10.9376 10.375 13.1501 10.375C13.1501 11.625 13.1501 12.8625 13.1501 14.1125C12.8501 14.1125 12.5459 14.1125 12.2251 14.1125C12.2251 13.8083 12.2251 13.5083 12.2251 13.1958C9.4084 13.1958 6.6084 13.1958 3.79173 13.1958C3.78757 13.4958 3.78757 13.8 3.78757 14.1208ZM12.2126 11.3208C9.3959 11.3208 6.59173 11.3208 3.79173 11.3208C3.79173 11.6333 3.79173 11.9333 3.79173 12.2375C6.60007 12.2375 9.40423 12.2375 12.2126 12.2375C12.2126 11.9333 12.2126 11.6333 12.2126 11.3208ZM3.79173 9.43747C3.79173 9.7583 3.79173 10.0625 3.79173 10.3708C4.2709 10.3708 4.73757 10.375 5.20423 10.3666C5.4584 10.3625 5.65423 10.1458 5.65423 9.89997C5.65423 9.6583 5.46257 9.44163 5.21673 9.43747C4.7459 9.4333 4.27507 9.43747 3.79173 9.43747Z" fill="#09394D"/>
<path d="M10.3333 7.55415C8.77496 7.55415 7.22496 7.55415 5.66663 7.55415C5.66663 6.30832 5.66663 5.06665 5.66663 3.81665C7.22079 3.81665 8.77079 3.81665 10.3333 3.81665C10.3333 5.05832 10.3333 6.29998 10.3333 7.55415ZM6.60413 4.75415C6.60413 5.38332 6.60413 5.99998 6.60413 6.61665C7.54163 6.61665 8.46246 6.61665 9.39579 6.61665C9.39579 5.99165 9.39579 5.37915 9.39579 4.75415C8.46246 4.75415 7.53746 4.75415 6.60413 4.75415Z" fill="#09394D"/>
</g>
<defs>
<clipPath id="clip0_768_28890">
<rect width="16" height="16" fill="white"/>
</clipPath>
</defs>
</svg>
