<svg width="24" height="26" viewBox="0 0 24 26" fill="none" xmlns="http://www.w3.org/2000/svg">
<path d="M9.16031 0C9.38931 0 9.61832 0 9.84733 0C9.88659 0.0130862 9.9193 0.0327154 9.95856 0.0458015C10.8353 0.215921 11.4766 0.700109 11.8561 1.51145C12 1.81243 12.0589 2.15921 12.1636 2.506C12.229 2.506 12.3272 2.506 12.4188 2.506C14.0676 2.506 15.7165 2.506 17.3653 2.506C18.386 2.506 19.0076 3.13413 19.0076 4.1614C19.0076 6.28135 19.0076 8.40785 19.0076 10.5278C19.0076 10.6194 19.0076 10.7176 19.0076 10.8026C21.8146 11.1036 23.8299 13.3217 23.9935 15.9716C24.1701 18.8964 21.952 21.5463 19.0076 21.795C19.0076 22.181 19.0076 22.5736 19.0076 22.9597C19.0076 23.2606 19.0273 23.5682 18.988 23.8626C18.8833 24.5889 18.229 25.0796 17.4111 25.0796C12.1636 25.0796 6.91603 25.0796 1.66848 25.0796C0.608506 25.0731 0 24.4646 0 23.4046C0 16.9989 0 10.5932 0 4.18757C0 3.12105 0.615049 2.506 1.68811 2.506C3.33043 2.506 4.96619 2.506 6.60851 2.506C6.70665 2.506 6.79826 2.506 6.8964 2.506C6.95529 1.71429 7.26936 1.07961 7.85823 0.588877C8.23773 0.268266 8.6892 0.111232 9.16031 0ZM3.18648 21.8866C7.4133 21.8866 11.614 21.8866 15.8277 21.8866C15.8277 21.6772 15.8212 21.4809 15.8277 21.2846C15.8342 21.1341 15.7884 21.0491 15.6576 20.9706C14.964 20.5518 14.3882 20.0022 13.9498 19.3152C13.8582 19.1712 13.7535 19.1254 13.59 19.132C13.0731 19.1385 12.5627 19.1385 12.0458 19.1385C11.1756 19.1385 10.2988 19.1385 9.42857 19.1385C9.3566 19.1385 9.27808 19.1385 9.20611 19.132C8.90513 19.0992 8.70883 18.8899 8.71538 18.6216C8.72846 18.3468 8.9313 18.157 9.24537 18.157C10.5082 18.1505 11.7775 18.157 13.0403 18.157C13.132 18.157 13.2236 18.1505 13.3479 18.1439C12.9291 16.9138 12.9291 15.7099 13.3217 14.4864C13.2039 14.4864 13.1123 14.4864 13.0273 14.4864C11.8168 14.4864 10.6129 14.4864 9.4024 14.4864C9.29117 14.4864 9.17339 14.4798 9.06216 14.4537C8.83969 14.3948 8.69575 14.1723 8.71538 13.9498C8.73501 13.7208 8.91167 13.5376 9.14068 13.5115C9.23228 13.4984 9.31734 13.5049 9.40894 13.5049C10.7895 13.5049 12.1701 13.5049 13.5507 13.5115C13.7208 13.5115 13.8124 13.4591 13.904 13.3152C14.349 12.615 14.9248 12.0458 15.6314 11.614C15.7754 11.5289 15.8212 11.4308 15.8212 11.2672C15.8146 9.48746 15.8146 7.70774 15.8146 5.92803C15.8146 5.84951 15.8081 5.77099 15.8015 5.69902C11.5747 5.69902 7.37405 5.69902 3.17339 5.69902C3.18648 11.0971 3.18648 16.482 3.18648 21.8866ZM23.0185 16.2792C23.0185 13.7863 20.9836 11.7514 18.5038 11.7579C16.0371 11.7644 14.0153 13.7993 14.0087 16.2792C14.0087 18.7721 16.0371 20.8135 18.5104 20.807C20.9967 20.8135 23.0185 18.7721 23.0185 16.2792ZM16.8092 21.5463C16.8092 21.7819 16.8092 21.9913 16.8092 22.2072C16.8092 22.7503 16.6718 22.8877 16.1287 22.8877C11.7121 22.8877 7.29553 22.8877 2.87895 22.8877C2.32279 22.8877 2.19193 22.7568 2.19193 22.1941C2.19193 16.5932 2.19193 10.9989 2.19193 5.39804C2.19193 5.33915 2.19193 5.28681 2.19193 5.22792C2.20502 4.90076 2.38168 4.71756 2.71538 4.71101C3.24537 4.70447 3.77535 4.71101 4.30534 4.71101C4.38386 4.71101 4.46238 4.71101 4.53435 4.71101C4.53435 4.28571 4.53435 3.89967 4.53435 3.494C3.57906 3.494 2.6434 3.494 1.70774 3.494C1.14504 3.494 0.974918 3.66412 0.974918 4.22028C0.974918 10.5998 0.974918 16.9858 0.974918 23.3653C0.974918 23.9411 1.13195 24.1047 1.72083 24.1047C6.90949 24.1047 12.1047 24.1047 17.2933 24.1047C17.3653 24.1047 17.4438 24.1047 17.5158 24.1047C17.8299 24.0785 18.0196 23.8757 18.0262 23.5682C18.0262 23.3391 18.0262 23.1101 18.0262 22.8811C18.0262 22.5147 18.0262 22.1549 18.0262 21.8015C17.6074 21.7034 17.2279 21.6314 16.8092 21.5463ZM5.54853 4.68484C8.19847 4.68484 10.8222 4.68484 13.4526 4.68484C13.4526 4.27917 13.4526 3.89313 13.4526 3.48746C12.8768 3.48746 12.3141 3.48746 11.7514 3.48746C11.2214 3.48746 11.0709 3.32388 11.1167 2.78735C11.2083 1.64885 10.2465 0.785169 9.15376 1.02072C8.3097 1.20393 7.7928 1.96947 7.90404 2.87895C7.94984 3.25191 7.76009 3.47437 7.38713 3.48746C7.16467 3.494 6.94875 3.48746 6.72628 3.48746C6.34024 3.48746 5.94766 3.48746 5.54853 3.48746C5.54853 3.89967 5.54853 4.27917 5.54853 4.68484ZM14.4602 4.69793C15.036 4.69793 15.5921 4.69793 16.1483 4.69793C16.6718 4.69793 16.8092 4.84188 16.8092 5.37186C16.8092 7.15812 16.8092 8.94438 16.8092 10.7306C16.8092 10.8222 16.8092 10.9204 16.8092 11.0251C17.2345 10.94 17.6205 10.8615 18.0131 10.7764C18.0196 10.7241 18.0196 10.6783 18.0196 10.6325C18.0196 8.44711 18.0196 6.25518 18.0196 4.06979C18.0196 3.69029 17.8102 3.48092 17.4242 3.47437C16.8222 3.46783 16.2137 3.47437 15.6118 3.47437C15.2323 3.47437 14.8462 3.47437 14.4537 3.47437C14.4602 3.89313 14.4602 4.27917 14.4602 4.69793Z" fill="#09394D"/>
<path d="M6.0654 11.084C5.10357 11.0774 4.3184 10.2988 4.3184 9.34351C4.31186 8.38168 5.11011 7.58997 6.07849 7.58997C7.04686 7.58997 7.83857 8.39476 7.82549 9.3566C7.81894 10.3184 7.02723 11.0905 6.0654 11.084ZM6.07849 8.57143C5.65319 8.57143 5.29332 8.92475 5.29986 9.35005C5.3064 9.76227 5.65973 10.109 6.07194 10.109C6.4907 10.109 6.83748 9.76881 6.85057 9.3566C6.85711 8.9313 6.50379 8.57143 6.07849 8.57143Z" fill="#09394D"/>
<path d="M6.03923 15.7361C5.0774 15.7164 4.30532 14.9247 4.3184 13.9694C4.33149 12.988 5.14283 12.2224 6.13083 12.2421C7.06649 12.2617 7.84512 13.0665 7.82549 14.0087C7.8124 14.9836 7.01415 15.7557 6.03923 15.7361ZM6.07195 14.7612C6.49725 14.7612 6.85711 14.4078 6.85057 13.9825C6.84403 13.5638 6.49725 13.2235 6.07849 13.2235C5.65319 13.2235 5.29332 13.5769 5.29986 14.0022C5.30641 14.4144 5.65319 14.7546 6.07195 14.7612Z" fill="#09394D"/>
<path d="M6.07849 20.3882C5.10357 20.3882 4.31186 19.603 4.3184 18.6346C4.32494 17.6793 5.11011 16.8942 6.0654 16.8942C7.03378 16.8942 7.83203 17.6859 7.82549 18.6477C7.82549 19.6095 7.04032 20.3882 6.07849 20.3882ZM6.05231 19.4132C6.48416 19.4263 6.84403 19.0796 6.85057 18.6543C6.85711 18.242 6.51033 17.8822 6.09812 17.8756C5.66627 17.8691 5.3064 18.2093 5.29986 18.6346C5.29332 19.0468 5.63356 19.4002 6.05231 19.4132Z" fill="#09394D"/>
<path d="M11.699 8.85278C12.5038 8.85278 13.3151 8.85278 14.1199 8.85278C14.4274 8.85278 14.6237 9.0229 14.6434 9.28463C14.6695 9.58561 14.4732 9.80807 14.1461 9.8277C13.9236 9.84079 13.7077 9.83424 13.4852 9.83424C12.1374 9.83424 10.796 9.83424 9.44816 9.83424C9.37618 9.83424 9.30421 9.83424 9.22569 9.83424C8.92471 9.81462 8.71533 9.61178 8.71533 9.34351C8.71533 9.06216 8.92471 8.85933 9.24532 8.85933C9.9716 8.85278 10.6979 8.85933 11.4242 8.85933C11.5223 8.85278 11.6139 8.85278 11.699 8.85278Z" fill="#09394D"/>
<path d="M19.0011 16.024C19.1647 16.024 19.2956 16.0174 19.4264 16.024C19.7209 16.0436 19.9237 16.2595 19.9172 16.5278C19.9041 16.796 19.6947 16.9923 19.3937 16.9989C19.1058 17.0054 18.8245 17.0054 18.5366 16.9989C18.2225 16.9923 18.0262 16.8091 18.0197 16.5016C18.0131 15.9978 18.0131 15.494 18.0197 14.9901C18.0262 14.7023 18.2487 14.4929 18.5235 14.4994C18.7852 14.506 18.9881 14.7088 18.9946 14.9901C19.0077 15.3238 19.0011 15.6575 19.0011 16.024Z" fill="#09394D"/>
</svg>
