<svg width="24" height="20" viewBox="0 0 24 20" fill="none" xmlns="http://www.w3.org/2000/svg">
<path d="M22.8028 18.7142H6.75412C6.59686 18.7142 6.44114 18.6833 6.29584 18.6231C6.15055 18.5629 6.01853 18.4747 5.90733 18.3635C5.79613 18.2523 5.70792 18.1203 5.64774 17.975C5.58755 17.8297 5.55658 17.6739 5.55658 17.5167C5.55658 17.3594 5.58755 17.2037 5.64774 17.0584C5.70792 16.9131 5.79613 16.7811 5.90733 16.6699C6.01853 16.5587 6.15055 16.4705 6.29584 16.4103C6.44114 16.3501 6.59686 16.3191 6.75412 16.3191H22.8024C23.12 16.3191 23.4247 16.4452 23.6493 16.6697C23.8739 16.8943 24.0001 17.1989 24.0002 17.5165C24.0002 17.8341 23.8741 18.1387 23.6496 18.3633C23.425 18.588 23.1204 18.7142 22.8028 18.7142ZM22.8028 11.1972H6.75412C6.43652 11.1972 6.13192 11.0711 5.90733 10.8465C5.68275 10.6219 5.55658 10.3173 5.55658 9.99969C5.55658 9.68208 5.68275 9.37748 5.90733 9.1529C6.13192 8.92832 6.43652 8.80215 6.75412 8.80215H22.8024C23.12 8.80209 23.4247 8.92821 23.6493 9.15276C23.8739 9.3773 24.0001 9.68188 24.0002 9.99949C24.0002 10.3171 23.8741 10.6217 23.6496 10.8463C23.425 11.071 23.1204 11.1972 22.8028 11.1972ZM22.8028 3.68025H6.75412C6.59686 3.68025 6.44114 3.64927 6.29584 3.58909C6.15055 3.52891 6.01853 3.4407 5.90733 3.32949C5.79613 3.21829 5.70792 3.08627 5.64774 2.94098C5.58755 2.79569 5.55658 2.63997 5.55658 2.4827C5.55658 2.32544 5.58755 2.16971 5.64774 2.02442C5.70792 1.87913 5.79613 1.74711 5.90733 1.63591C6.01853 1.52471 6.15055 1.4365 6.29584 1.37631C6.44114 1.31613 6.59686 1.28516 6.75412 1.28516H22.8024C23.12 1.2851 23.4247 1.41122 23.6493 1.63577C23.8739 1.86031 24.0001 2.16489 24.0002 2.4825C24.0002 2.80011 23.8741 3.10473 23.6496 3.32935C23.425 3.55397 23.1204 3.68019 22.8028 3.68025Z" fill="#F46523"/>
<path d="M1.6083 4.1834C2.49654 4.1834 3.21661 3.46334 3.21661 2.5751C3.21661 1.68686 2.49654 0.966797 1.6083 0.966797C0.720062 0.966797 0 1.68686 0 2.5751C0 3.46334 0.720062 4.1834 1.6083 4.1834Z" fill="#F46523"/>
<path d="M1.6083 11.6072C2.49654 11.6072 3.21661 10.8872 3.21661 9.99893C3.21661 9.11069 2.49654 8.39062 1.6083 8.39062C0.720062 8.39062 0 9.11069 0 9.99893C0 10.8872 0.720062 11.6072 1.6083 11.6072Z" fill="#F46523"/>
<path d="M1.6083 19.033C2.49654 19.033 3.21661 18.313 3.21661 17.4247C3.21661 16.5365 2.49654 15.8164 1.6083 15.8164C0.720062 15.8164 0 16.5365 0 17.4247C0 18.313 0.720062 19.033 1.6083 19.033Z" fill="#F46523"/>
</svg>
