<svg width="24" height="24" viewBox="0 0 24 24" fill="none" xmlns="http://www.w3.org/2000/svg">
<circle cx="12" cy="12" r="12" fill="#09394D"/>
<path d="M19.375 12.625H12.625V19.375C12.625 19.7202 12.3452 20 12 20C11.6548 20 11.375 19.7202 11.375 19.375V12.625H4.625C4.27981 12.625 4 12.3452 4 12C4 11.6548 4.27981 11.375 4.625 11.375H11.375V4.625C11.375 4.27981 11.6548 4 12 4C12.3452 4 12.625 4.27981 12.625 4.625V11.375H19.375C19.7202 11.375 20 11.6548 20 12C20 12.3452 19.7202 12.625 19.375 12.625Z" fill="#FFE111" stroke="#FFE111" stroke-width="0.5"/>
</svg>
