<svg width="10" height="18" viewBox="0 0 10 18" fill="none" xmlns="http://www.w3.org/2000/svg">
<path d="M8.68444 18C9.18183 17.821 9.48485 17.3897 9.80865 16.9982C10.0731 16.6786 10.0463 16.1599 9.79437 15.8266C9.73593 15.7492 9.66926 15.6782 9.6026 15.6077C7.57149 13.459 5.54038 11.3103 3.50797 9.16301C3.46166 9.11402 3.40148 9.07968 3.33958 9.03206C3.41534 8.94782 3.45906 8.89745 3.50494 8.84892C5.55164 6.68374 7.59833 4.51856 9.64502 2.35293C10.0099 1.9665 10.1208 1.49033 9.84848 1.10391C9.59783 0.748156 9.28442 0.426744 8.9511 0.156154C8.63769 -0.0979536 8.21519 -0.0233238 7.90525 0.245893C7.85849 0.286642 7.81304 0.330138 7.77018 0.375465C5.29623 2.99163 2.82271 5.60733 0.349195 8.22395C-0.0213556 8.61588 -0.101872 9.07281 0.131021 9.49541C0.188595 9.5998 0.268679 9.69366 0.350061 9.77973C2.82228 12.3973 5.2945 15.0153 7.77408 17.625C7.92429 17.7834 8.13597 17.8764 8.31909 17.9995C8.44073 18 8.56237 18 8.68444 18Z" fill="#09394D"/>
</svg>
