<svg width="36" height="36" viewBox="0 0 36 36" fill="none" xmlns="http://www.w3.org/2000/svg">
<circle cx="18" cy="18" r="18" fill="white"/>
<path d="M29.0625 18.9375H18.9375V29.0625C18.9375 29.5803 18.5178 30 18 30C17.4822 30 17.0625 29.5803 17.0625 29.0625V18.9375H6.9375C6.41972 18.9375 6 18.5178 6 18C6 17.4822 6.41972 17.0625 6.9375 17.0625H17.0625V6.9375C17.0625 6.41972 17.4822 6 18 6C18.5178 6 18.9375 6.41972 18.9375 6.9375V17.0625H29.0625C29.5803 17.0625 30 17.4822 30 18C30 18.5178 29.5803 18.9375 29.0625 18.9375Z" fill="#F46523" stroke="#F46523"/>
</svg>
