<svg width="30" height="30" viewBox="0 0 30 30" fill="none" xmlns="http://www.w3.org/2000/svg">
<g clip-path="url(#clip0_467_30133)">
<path d="M6.11305 19.951C9.07202 23.4881 12.634 26.273 16.6995 28.2436C18.2473 28.9771 20.3174 29.8474 22.6236 29.9966C22.7666 30.0028 22.9033 30.009 23.0463 30.009C24.5942 30.009 25.8375 29.4744 26.8507 28.3741C26.8569 28.3679 26.8694 28.3555 26.8756 28.3431C27.2361 27.9079 27.6464 27.5163 28.0753 27.0998C28.3675 26.8201 28.6659 26.5279 28.9518 26.2295C30.2759 24.8495 30.2759 23.0965 28.9394 21.76L25.2034 18.024C24.5693 17.365 23.8109 17.0169 23.0152 17.0169C22.2196 17.0169 21.4549 17.365 20.8022 18.0177L18.5768 20.2432C18.3716 20.1251 18.1603 20.0194 17.9614 19.9199C17.7127 19.7956 17.4827 19.6775 17.2776 19.547C15.251 18.2602 13.411 16.5818 11.6518 14.4247C10.7629 13.2995 10.1661 12.3547 9.7496 11.3911C10.3339 10.8627 10.881 10.3095 11.4094 9.76867C11.5958 9.57596 11.7886 9.38326 11.9813 9.19055C12.6526 8.51919 13.0132 7.74215 13.0132 6.95267C13.0132 6.1632 12.6588 5.38616 11.9813 4.71479L10.1288 2.86233C9.91122 2.64476 9.70609 2.4334 9.49473 2.21583C9.08445 1.79312 8.65553 1.35798 8.23281 0.966348C7.59253 0.338499 6.84036 0.0090332 6.04467 0.0090332C5.25519 0.0090332 4.4968 0.338499 3.83165 0.972564L1.50675 3.29747C0.661327 4.14289 0.18267 5.16859 0.0832087 6.3559C-0.0349016 7.84161 0.238617 9.42055 0.947278 11.329C2.03514 14.2817 3.67625 17.0231 6.11305 19.951ZM1.59999 6.48645C1.67459 5.65968 1.99162 4.96966 2.58839 4.3729L4.90086 2.06042C5.26141 1.71231 5.65926 1.53203 6.04467 1.53203C6.42386 1.53203 6.80928 1.71231 7.16361 2.07285C7.5801 2.45827 7.97173 2.86233 8.39444 3.29125C8.60579 3.50883 8.82337 3.7264 9.04094 3.95019L10.8934 5.80265C11.2788 6.18806 11.4777 6.57969 11.4777 6.9651C11.4777 7.35052 11.2788 7.74215 10.8934 8.12756C10.7007 8.32026 10.508 8.51919 10.3153 8.71189C9.73717 9.29623 9.19635 9.84948 8.59958 10.3779L8.5685 10.409C8.05254 10.9249 8.13335 11.416 8.25768 11.789C8.2639 11.8076 8.27011 11.8201 8.27633 11.8387C8.75499 12.9887 9.42013 14.0828 10.4583 15.3882C12.3232 17.6883 14.2875 19.4724 16.4508 20.8462C16.7181 21.0202 17.0041 21.157 17.2714 21.2937C17.52 21.4181 17.75 21.5362 17.9552 21.6667C17.98 21.6792 17.9987 21.6916 18.0235 21.704C18.2287 21.8097 18.4276 21.8594 18.6265 21.8594C19.1238 21.8594 19.4471 21.5424 19.5527 21.4367L21.8777 19.1118C22.2382 18.7513 22.6298 18.5586 23.0152 18.5586C23.4877 18.5586 23.8731 18.8507 24.1155 19.1118L27.864 22.854C28.6099 23.6 28.6037 24.4081 27.8453 25.1976C27.5842 25.4773 27.3107 25.7446 27.0186 26.0244C26.5834 26.4471 26.1296 26.8822 25.7193 27.3733C25.0045 28.1441 24.1528 28.5047 23.0525 28.5047C22.9469 28.5047 22.835 28.4985 22.7293 28.4923C20.6903 28.3617 18.7944 27.566 17.3708 26.8884C13.5043 25.0173 10.1101 22.3629 7.29415 18.9937C4.97546 16.2026 3.41516 13.6041 2.38325 10.8192C1.74297 9.10974 1.50053 7.73593 1.59999 6.48645Z" fill="#09394D"/>
</g>
<defs>
<clipPath id="clip0_467_30133">
<rect width="30" height="30" fill="white" transform="translate(0 0.0090332)"/>
</clipPath>
</defs>
</svg>
