<svg width="18" height="18" viewBox="0 0 18 18" fill="none" xmlns="http://www.w3.org/2000/svg">
<g clip-path="url(#clip0_1089_21831)">
<mask id="mask0_1089_21831" style="mask-type:luminance" maskUnits="userSpaceOnUse" x="0" y="0" width="18" height="18">
<path d="M0 1.90735e-06H18V18H0V1.90735e-06Z" fill="white"/>
</mask>
<g mask="url(#mask0_1089_21831)">
<path d="M17.4727 9C17.4727 13.6599 13.6599 17.4727 9 17.4727C4.34011 17.4727 0.527344 13.6599 0.527344 9C0.527344 4.34011 4.34011 0.527346 9 0.527346C13.6599 0.527346 17.4727 4.34011 17.4727 9Z" stroke="#09394D" stroke-width="0.898515" stroke-miterlimit="10" stroke-linecap="round" stroke-linejoin="round"/>
<path d="M4.15251 13.1017C4.35845 12.8958 4.69233 12.8958 4.89828 13.1017C5.10422 13.3077 5.10422 13.6415 4.89828 13.8475C4.69233 14.0534 4.35845 14.0534 4.15251 13.8475C3.94656 13.6415 3.94656 13.3077 4.15251 13.1017Z" fill="#09394D"/>
<path d="M13.1037 4.15299C13.3096 3.94705 13.6435 3.94705 13.8494 4.15299C14.0554 4.35894 14.0554 4.69282 13.8494 4.89876C13.6435 5.10471 13.3096 5.10471 13.1037 4.89876C12.8977 4.69282 12.8977 4.35894 13.1037 4.15299Z" fill="#09394D"/>
<path d="M4.89828 4.15251C5.10422 4.35845 5.10422 4.69233 4.89828 4.89828C4.69237 5.10422 4.35845 5.10422 4.15251 4.89828C3.94656 4.69233 3.94656 4.35845 4.15251 4.15251C4.35845 3.94656 4.69237 3.94656 4.89828 4.15251Z" fill="#09394D"/>
<path d="M13.8494 13.1017C14.0554 13.3077 14.0554 13.6415 13.8494 13.8475C13.6435 14.0534 13.3096 14.0534 13.1037 13.8475C12.8977 13.6415 12.8977 13.3077 13.1037 13.1017C13.3096 12.8958 13.6435 12.8958 13.8494 13.1017Z" fill="#09394D"/>
<path d="M9 2.67188V3.72656" stroke="#09394D" stroke-width="0.898515" stroke-miterlimit="10" stroke-linecap="round" stroke-linejoin="round"/>
<path d="M9 14.2734V15.3281" stroke="#09394D" stroke-width="0.898515" stroke-miterlimit="10" stroke-linecap="round" stroke-linejoin="round"/>
<path d="M2.67188 9H3.72656" stroke="#09394D" stroke-width="0.898515" stroke-miterlimit="10" stroke-linecap="round" stroke-linejoin="round"/>
<path d="M14.2734 9H15.3281" stroke="#09394D" stroke-width="0.898515" stroke-miterlimit="10" stroke-linecap="round" stroke-linejoin="round"/>
<path d="M9 5.83594V9L12.1641 12.1641" stroke="#09394D" stroke-width="0.898515" stroke-miterlimit="10" stroke-linecap="round" stroke-linejoin="round"/>
</g>
</g>
<defs>
<clipPath id="clip0_1089_21831">
<rect width="18" height="18" fill="white"/>
</clipPath>
</defs>
</svg>
