<svg width="30" height="30" viewBox="0 0 30 30" fill="none" xmlns="http://www.w3.org/2000/svg">
<path d="M15 27.5C8.09644 27.5 2.5 21.9035 2.5 15C2.5 8.09644 8.09644 2.5 15 2.5C21.9035 2.5 27.5 8.09644 27.5 15C27.5 21.9035 21.9035 27.5 15 27.5ZM15 25C20.5229 25 25 20.5229 25 15C25 9.47715 20.5229 5 15 5C9.47715 5 5 9.47715 5 15C5 20.5229 9.47715 25 15 25ZM15 13.2323L18.5355 9.6967L20.3032 11.4645L16.7677 15L20.3032 18.5355L18.5355 20.3032L15 16.7677L11.4645 20.3032L9.6967 18.5355L13.2323 15L9.6967 11.4645L11.4645 9.6967L15 13.2323Z" fill="#202020"/>
</svg>
