<svg width="30" height="30" viewBox="0 0 30 30" fill="none" xmlns="http://www.w3.org/2000/svg">
<path d="M15.8789 30H4.6875C2.10275 30 0 27.8972 0 25.3125V9.43359C0 6.84885 2.10275 4.74609 4.6875 4.74609H15.8789C18.4637 4.74609 20.5664 6.84885 20.5664 9.43359V25.3125C20.5664 27.8972 18.4637 30 15.8789 30ZM4.6875 7.08984C3.39521 7.08984 2.34375 8.14131 2.34375 9.43359V25.3125C2.34375 26.6048 3.39521 27.6562 4.6875 27.6562H15.8789C17.1712 27.6562 18.2227 26.6048 18.2227 25.3125V9.43359C18.2227 8.14131 17.1712 7.08984 15.8789 7.08984H4.6875ZM25.2539 22.3828V4.6875C25.2539 2.10275 23.1512 0 20.5664 0H7.55859C6.91131 0 6.38672 0.52459 6.38672 1.17188C6.38672 1.81916 6.91131 2.34375 7.55859 2.34375H20.5664C21.8587 2.34375 22.9102 3.39521 22.9102 4.6875V22.3828C22.9102 23.0301 23.4347 23.5547 24.082 23.5547C24.7293 23.5547 25.2539 23.0301 25.2539 22.3828Z" fill="white"/>
</svg>
