<svg width="24" height="24" viewBox="0 0 24 24" fill="none" xmlns="http://www.w3.org/2000/svg">
<g clip-path="url(#clip0_2001_3653)">
<path d="M7.16661 17.9017C6.68478 17.782 6.19502 17.6967 5.70107 17.6466C6.43199 17.191 6.93604 16.2412 6.93604 15.1454C6.93604 13.7353 6.08863 12.8593 4.72457 12.8593C3.3605 12.8593 2.51315 13.7353 2.51315 15.1454C2.51315 16.2386 3.01485 17.1864 3.74296 17.6432C3.24926 17.6923 2.76003 17.779 2.27952 17.9025C0.982818 18.2358 0.268677 18.9515 0.268677 19.9178V23.625C0.268677 23.7245 0.308186 23.8198 0.378512 23.8902C0.448838 23.9605 0.544221 24 0.643677 24H8.80555C8.90501 24 9.00039 23.9605 9.07072 23.8902C9.14104 23.8198 9.18055 23.7245 9.18055 23.625V19.9178C9.1805 18.954 8.44644 18.2192 7.16661 17.9017ZM3.26315 15.1454C3.26315 13.8089 4.1788 13.6093 4.72457 13.6093C5.27038 13.6093 6.18604 13.8089 6.18604 15.1454C6.18604 16.2695 5.53044 17.184 4.72457 17.184C3.91869 17.184 3.26315 16.2695 3.26315 15.1454ZM8.4305 23.25H7.32608V20.77C7.32608 20.6706 7.28657 20.5752 7.21625 20.5049C7.14592 20.4345 7.05054 20.395 6.95108 20.395C6.85163 20.395 6.75624 20.4345 6.68592 20.5049C6.61559 20.5752 6.57608 20.6706 6.57608 20.77V23.25H2.873V20.77C2.873 20.6706 2.8335 20.5752 2.76317 20.5049C2.69284 20.4345 2.59746 20.395 2.498 20.395C2.39855 20.395 2.30317 20.4345 2.23284 20.5049C2.16251 20.5752 2.123 20.6706 2.123 20.77V23.25H1.01863V19.9178C1.01863 19.16 1.8058 18.7987 2.46622 18.6289C3.93777 18.2504 5.4584 18.2507 6.986 18.6297C7.52549 18.7635 8.43046 19.1087 8.43046 19.9178V23.25H8.4305ZM21.7174 17.9017C21.2355 17.782 20.7458 17.6967 20.2518 17.6466C20.9827 17.191 21.4868 16.2412 21.4868 15.1454C21.4868 13.7353 20.6394 12.8593 19.2754 12.8593C17.9113 12.8593 17.0639 13.7353 17.0639 15.1454C17.0639 16.2386 17.5656 17.1864 18.2938 17.6432C17.8001 17.6923 17.3108 17.779 16.8303 17.9025C15.5336 18.2358 14.8195 18.9516 14.8195 19.9179V23.625C14.8195 23.7245 14.859 23.8198 14.9293 23.8902C14.9996 23.9605 15.095 24 15.1945 24H23.3563C23.4558 24 23.5512 23.9605 23.6215 23.8902C23.6918 23.8198 23.7313 23.7245 23.7313 23.625V19.9178C23.7313 18.954 22.9972 18.2192 21.7174 17.9017ZM17.8139 15.1454C17.8139 13.8089 18.7296 13.6093 19.2753 13.6093C19.8211 13.6093 20.7367 13.8089 20.7367 15.1454C20.7367 16.2695 20.0811 17.184 19.2753 17.184C18.4695 17.184 17.8139 16.2695 17.8139 15.1454ZM22.9813 23.25H21.8768V20.77C21.8768 20.6706 21.8373 20.5752 21.767 20.5049C21.6967 20.4345 21.6013 20.395 21.5018 20.395C21.4024 20.395 21.307 20.4345 21.2367 20.5049C21.1663 20.5752 21.1268 20.6706 21.1268 20.77V23.25H17.4238V20.77C17.4238 20.6706 17.3843 20.5752 17.314 20.5049C17.2436 20.4345 17.1483 20.395 17.0488 20.395C16.9493 20.395 16.854 20.4345 16.7836 20.5049C16.7133 20.5752 16.6738 20.6706 16.6738 20.77V23.25H15.5694V19.9178C15.5694 19.16 16.3566 18.7987 17.017 18.6289C18.4885 18.2504 20.0092 18.2507 21.5368 18.6297C22.0762 18.7635 22.9813 19.1087 22.9813 19.9178V23.25ZM7.919 11.1406H16.0809C16.1803 11.1406 16.2757 11.1011 16.346 11.0308C16.4164 10.9605 16.4559 10.8651 16.4559 10.7656V7.05853C16.4559 6.09469 15.7218 5.35983 14.442 5.04239C13.9602 4.92263 13.4704 4.83735 12.9764 4.7872C13.7074 4.33162 14.2114 3.38184 14.2114 2.286C14.2114 0.875953 13.364 0 11.9999 0C10.6359 0 9.78852 0.875953 9.78852 2.28605C9.78852 3.37927 10.2902 4.32708 11.0183 4.78392C10.5246 4.83298 10.0354 4.91965 9.5549 5.04319C8.25815 5.37647 7.54405 6.0922 7.54405 7.05853V10.7656C7.54404 10.8149 7.55373 10.8637 7.57257 10.9092C7.59141 10.9546 7.61902 10.996 7.65384 11.0308C7.68866 11.0656 7.73 11.0933 7.7755 11.1121C7.821 11.131 7.86976 11.1406 7.919 11.1406ZM10.5385 2.28605C10.5385 0.949547 11.4541 0.75 11.9999 0.75C12.5458 0.75 13.4614 0.949547 13.4614 2.28605C13.4614 3.41016 12.8058 4.32469 11.9999 4.32469C11.1941 4.32469 10.5385 3.41016 10.5385 2.28605ZM8.294 7.05853C8.294 6.3007 9.08118 5.9393 9.7416 5.76956C11.2132 5.39109 12.7338 5.39138 14.2614 5.77036C14.8009 5.90414 15.7058 6.24947 15.7058 7.05853V10.3906H14.6014V7.91067C14.6014 7.81122 14.5619 7.71583 14.4916 7.64551C14.4212 7.57518 14.3259 7.53567 14.2264 7.53567C14.127 7.53567 14.0316 7.57518 13.9612 7.64551C13.8909 7.71583 13.8514 7.81122 13.8514 7.91067V10.3906H10.1484V7.91067C10.1484 7.81122 10.1089 7.71583 10.0385 7.64551C9.96822 7.57518 9.87284 7.53567 9.77338 7.53567C9.67392 7.53567 9.57854 7.57518 9.50821 7.64551C9.43789 7.71583 9.39838 7.81122 9.39838 7.91067V10.3906H8.294V7.05853ZM10.4249 12.099L8.9053 14.731L9.45524 14.5117C9.50098 14.4934 9.54986 14.4844 9.59911 14.485C9.64835 14.4857 9.69699 14.496 9.74224 14.5154C9.78748 14.5349 9.82845 14.5631 9.86281 14.5983C9.89716 14.6336 9.92423 14.6753 9.94246 14.7211C9.9793 14.8135 9.97793 14.9167 9.93866 15.0081C9.89939 15.0994 9.82544 15.1715 9.73307 15.2083L8.17888 15.8281C8.12624 15.8492 8.06951 15.858 8.01297 15.8539C7.95644 15.8498 7.90156 15.8329 7.85249 15.8046C7.8034 15.7762 7.76137 15.7371 7.72957 15.6902C7.69776 15.6433 7.67702 15.5898 7.66888 15.5337L7.4285 13.8778C7.41422 13.7793 7.43962 13.6793 7.49912 13.5996C7.55861 13.5199 7.64733 13.4671 7.74576 13.4528C7.84418 13.4385 7.94423 13.4639 8.02392 13.5234C8.10361 13.5829 8.15641 13.6716 8.17072 13.77L8.2558 14.3561L9.77544 11.724C9.80006 11.6813 9.83284 11.644 9.87191 11.614C9.91098 11.584 9.95557 11.562 10.0031 11.5493C10.0507 11.5365 10.1003 11.5333 10.1491 11.5397C10.198 11.5461 10.245 11.5621 10.2877 11.5868C10.3738 11.6365 10.4366 11.7184 10.4624 11.8145C10.4881 11.9105 10.4746 12.0129 10.4249 12.099ZM15.8211 15.8282L14.2668 15.2084C14.1744 15.1715 14.1005 15.0995 14.0612 15.0081C14.022 14.9167 14.0206 14.8135 14.0574 14.7211C14.0757 14.6754 14.1027 14.6337 14.1371 14.5984C14.1715 14.5631 14.2124 14.535 14.2577 14.5155C14.3029 14.4961 14.3515 14.4857 14.4008 14.4851C14.45 14.4844 14.4989 14.4935 14.5446 14.5118L15.0946 14.7311L13.575 12.099C13.5261 12.013 13.5132 11.911 13.5391 11.8154C13.5651 11.7199 13.6278 11.6385 13.7135 11.5889C13.7993 11.5394 13.9011 11.5258 13.9969 11.5512C14.0926 11.5765 14.1745 11.6386 14.2245 11.724L15.7442 14.3561L15.8293 13.7701C15.845 13.6729 15.8982 13.5859 15.9776 13.5276C16.0569 13.4694 16.156 13.4447 16.2534 13.4588C16.3507 13.473 16.4387 13.5248 16.4982 13.6032C16.5577 13.6816 16.584 13.7802 16.5715 13.8778L16.3311 15.5337C16.323 15.5898 16.3022 15.6433 16.2704 15.6903C16.2386 15.7372 16.1966 15.7763 16.1475 15.8046C16.0984 15.833 16.0435 15.8498 15.987 15.8539C15.9304 15.858 15.8737 15.8492 15.8211 15.8282Z" fill="#09394D"/>
</g>
<defs>
<clipPath id="clip0_2001_3653">
<rect width="24" height="24" fill="white"/>
</clipPath>
</defs>
</svg>
