<svg width="18" height="18" viewBox="0 0 18 18" fill="none" xmlns="http://www.w3.org/2000/svg">
<path d="M15.8032 3.9225C14.5957 3.8025 13.3882 3.7125 12.1732 3.645V3.6375L12.0082 2.6625C11.8957 1.9725 11.7307 0.9375 9.97573 0.9375H8.01073C6.26323 0.9375 6.09823 1.9275 5.97823 2.655L5.82073 3.615C5.12323 3.66 4.42573 3.705 3.72823 3.7725L2.19823 3.9225C1.88323 3.9525 1.65823 4.23 1.68823 4.5375C1.71823 4.845 1.98823 5.07 2.30323 5.04L3.83323 4.89C7.76323 4.5 11.7232 4.65 15.6982 5.0475C15.7207 5.0475 15.7357 5.0475 15.7582 5.0475C16.0432 5.0475 16.2907 4.83 16.3207 4.5375C16.3432 4.23 16.1182 3.9525 15.8032 3.9225Z" fill="#09394D"/>
<path opacity="0.3991" d="M14.4218 6.105C14.2418 5.9175 13.9943 5.8125 13.7393 5.8125H4.25932C4.00432 5.8125 3.74932 5.9175 3.57682 6.105C3.40432 6.2925 3.30682 6.5475 3.32182 6.81L3.78682 14.505C3.86932 15.645 3.97432 17.07 6.59182 17.07H11.4068C14.0243 17.07 14.1293 15.6525 14.2118 14.505L14.6768 6.8175C14.6918 6.5475 14.5943 6.2925 14.4218 6.105Z" fill="#09394D"/>
<path fill-rule="evenodd" clip-rule="evenodd" d="M7.18555 12.75C7.18555 12.4393 7.43739 12.1875 7.74805 12.1875H10.2455C10.5562 12.1875 10.808 12.4393 10.808 12.75C10.808 13.0607 10.5562 13.3125 10.2455 13.3125H7.74805C7.43739 13.3125 7.18555 13.0607 7.18555 12.75Z" fill="#09394D"/>
<path fill-rule="evenodd" clip-rule="evenodd" d="M6.5625 9.75C6.5625 9.43934 6.81434 9.1875 7.125 9.1875H10.875C11.1857 9.1875 11.4375 9.43934 11.4375 9.75C11.4375 10.0607 11.1857 10.3125 10.875 10.3125H7.125C6.81434 10.3125 6.5625 10.0607 6.5625 9.75Z" fill="#09394D"/>
</svg>
