<svg width="24" height="24" viewBox="0 0 24 24" fill="none" xmlns="http://www.w3.org/2000/svg">
<path d="M6.93 13.17C6.75642 12.9957 6.65897 12.7597 6.65897 12.5137C6.65897 12.2677 6.75642 12.0318 6.93 11.8575C7.01503 11.772 7.11612 11.7041 7.22745 11.6578C7.33879 11.6116 7.45817 11.5877 7.57875 11.5877C7.69933 11.5877 7.81871 11.6116 7.93005 11.6578C8.04138 11.7041 8.14247 11.772 8.2275 11.8575L11.0625 14.715V2.40747C11.0625 2.15883 11.1613 1.92037 11.3371 1.74456C11.5129 1.56874 11.7514 1.46997 12 1.46997C12.2486 1.46997 12.4871 1.56874 12.6629 1.74456C12.8387 1.92037 12.9375 2.15883 12.9375 2.40747V14.715L15.75 11.8575C15.835 11.772 15.9361 11.7041 16.0475 11.6578C16.1588 11.6116 16.2782 11.5877 16.3988 11.5877C16.5193 11.5877 16.6387 11.6116 16.75 11.6578C16.8614 11.7041 16.9625 11.772 17.0475 11.8575C17.2211 12.0318 17.3185 12.2677 17.3185 12.5137C17.3185 12.7597 17.2211 12.9957 17.0475 13.17L12.63 17.67C12.5454 17.7575 12.444 17.8271 12.3319 17.8747C12.2198 17.9223 12.0993 17.9468 11.9775 17.9468C11.8557 17.9468 11.7352 17.9223 11.6231 17.8747C11.511 17.8271 11.4096 17.7575 11.325 17.67L6.93 13.17ZM21.5775 14.79C21.3341 14.79 21.1006 14.8861 20.9278 15.0575C20.755 15.2289 20.657 15.4616 20.655 15.705V20.115C20.655 20.2602 20.5973 20.3994 20.4946 20.5021C20.392 20.6048 20.2527 20.6625 20.1075 20.6625H3.8925C3.74729 20.6625 3.60804 20.6048 3.50536 20.5021C3.40268 20.3994 3.345 20.2602 3.345 20.115V15.705C3.345 15.4603 3.24781 15.2257 3.07481 15.0527C2.9018 14.8797 2.66716 14.7825 2.4225 14.7825C2.17784 14.7825 1.9432 14.8797 1.77019 15.0527C1.59719 15.2257 1.5 15.4603 1.5 15.705V20.115C1.50199 20.7482 1.75493 21.3548 2.20339 21.8019C2.65186 22.2489 3.25927 22.5 3.8925 22.5H20.1075C20.7407 22.5 21.3481 22.2489 21.7966 21.8019C22.2451 21.3548 22.498 20.7482 22.5 20.115V15.705C22.498 15.4616 22.4 15.2289 22.2272 15.0575C22.0544 14.8861 21.8209 14.79 21.5775 14.79Z" fill="#09394D"/>
</svg>
