<svg width="24" height="24" viewBox="0 0 24 24" fill="none" xmlns="http://www.w3.org/2000/svg">
<g clip-path="url(#clip0_1002_12419)">
<path d="M1.76255 10.8411C2.33432 5.8417 6.71943 2 11.9976 2C17.2711 2 21.661 5.8417 22.2327 10.8411C23.2439 11.0821 24 11.9894 24 13.0715V19.6113C24 19.9799 23.7023 20.2776 23.3337 20.2776H21.7602V20.8447C21.7602 21.2132 21.4625 21.5109 21.0939 21.5109C20.7253 21.5109 20.4276 21.2132 20.4276 20.8447V20.2776H3.57236V20.8447C3.57236 21.2132 3.27466 21.5109 2.90608 21.5109C2.53751 21.5109 2.23981 21.2132 2.23981 20.8447V20.2776H0.666273C0.297697 20.2776 0 19.9799 0 19.6113V13.0715C-0.0047245 11.9894 0.751329 11.0821 1.76255 10.8411ZM11.9976 3.33727C7.48021 3.33727 3.70939 6.55523 3.114 10.7797H3.99764C4.27171 9.30065 5.78854 8.16184 7.62197 8.16184C9.4554 8.16184 10.9722 9.30065 11.2463 10.7797H12.749C13.023 9.30065 14.5399 8.16184 16.3733 8.16184C18.2067 8.16184 19.7236 9.30065 19.9976 10.7797H20.8813C20.2859 6.5505 16.5151 3.33727 11.9976 3.33727ZM5.37271 10.7797H9.87123C9.59244 10.0378 8.6899 9.49439 7.62197 9.49439C6.55405 9.49439 5.65151 10.0378 5.37271 10.7797ZM14.124 10.7797H18.6226C18.3438 10.0378 17.4412 9.49439 16.3733 9.49439C15.3054 9.49439 14.4028 10.0378 14.124 10.7797ZM22.6675 18.9451V13.0715C22.6675 12.5422 22.2374 12.1122 21.7082 12.1122H2.29179C1.76255 12.1122 1.33254 12.5422 1.33254 13.0715V18.9451H22.6675Z" fill="#F46523"/>
</g>
<defs>
<clipPath id="clip0_1002_12419">
<rect width="24" height="24" fill="white" transform="matrix(-1 0 0 1 24 0)"/>
</clipPath>
</defs>
</svg>
