<svg width="24" height="24" viewBox="0 0 24 24" fill="none" xmlns="http://www.w3.org/2000/svg">
<g clip-path="url(#clip0_1002_12419)">
<path d="M1.76255 11.0853C2.33432 6.08584 6.71943 2.24414 11.9976 2.24414C17.2711 2.24414 21.661 6.08584 22.2327 11.0853C23.2439 11.3262 24 12.2335 24 13.3156V19.8555C24 20.2241 23.7023 20.5218 23.3337 20.5218H21.7602V21.0888C21.7602 21.4574 21.4625 21.7551 21.0939 21.7551C20.7253 21.7551 20.4276 21.4574 20.4276 21.0888V20.5218H3.57236V21.0888C3.57236 21.4574 3.27466 21.7551 2.90608 21.7551C2.53751 21.7551 2.23981 21.4574 2.23981 21.0888V20.5218H0.666273C0.297697 20.5218 0 20.2241 0 19.8555V13.3156C-0.0047245 12.2335 0.751329 11.3262 1.76255 11.0853ZM11.9976 3.58141C7.48021 3.58141 3.70939 6.79937 3.114 11.0238H3.99764C4.27171 9.54479 5.78854 8.40598 7.62197 8.40598C9.4554 8.40598 10.9722 9.54479 11.2463 11.0238H12.749C13.023 9.54479 14.5399 8.40598 16.3733 8.40598C18.2067 8.40598 19.7236 9.54479 19.9976 11.0238H20.8813C20.2859 6.79464 16.5151 3.58141 11.9976 3.58141ZM5.37271 11.0238H9.87123C9.59244 10.2819 8.6899 9.73853 7.62197 9.73853C6.55405 9.73853 5.65151 10.2819 5.37271 11.0238ZM14.124 11.0238H18.6226C18.3438 10.2819 17.4412 9.73853 16.3733 9.73853C15.3054 9.73853 14.4028 10.2819 14.124 11.0238ZM22.6675 19.1892V13.3156C22.6675 12.7864 22.2374 12.3564 21.7082 12.3564H2.29179C1.76255 12.3564 1.33254 12.7864 1.33254 13.3156V19.1892H22.6675Z" fill="#F46523"/>
</g>
<defs>
<clipPath id="clip0_1002_12419">
<rect width="24" height="24" fill="white" transform="matrix(-1 0 0 1 24 0)"/>
</clipPath>
</defs>
</svg>
