<svg width="20" height="20" viewBox="0 0 20 20" fill="none" xmlns="http://www.w3.org/2000/svg">
<g clip-path="url(#clip0_219_25535)">
<path d="M15.545 12.8943C15.0077 12.8943 14.5735 13.3286 14.5735 13.8658V16.9175C14.5735 17.4538 14.1382 17.8891 13.6019 17.8891H2.91467C2.37836 17.8891 1.94313 17.4538 1.94313 16.9175V4.28719C1.94313 3.75088 2.3784 3.31565 2.91467 3.31565H8.55946C9.09671 3.31565 9.531 2.88136 9.531 2.3441C9.531 1.80685 9.09671 1.37256 8.55946 1.37256H2.91467C1.30771 1.37248 0 2.68023 0 4.28719V16.9175C0 18.5245 1.30771 19.8322 2.91467 19.8322H13.6019C15.2088 19.8322 16.5165 18.5255 16.5165 16.9175V13.8659C16.5166 13.3286 16.0823 12.8943 15.545 12.8943Z" fill="#09394D"/>
<path d="M18.913 1.24901C18.2076 0.54367 17.2866 0.188051 16.3587 0.168637C15.3823 0.147271 14.4 0.500897 13.6617 1.24026L7.08415 7.81776C6.12425 8.78157 5.5957 10.0601 5.5957 11.4184V13.5947C5.5957 14.1319 6.02999 14.5662 6.56725 14.5662H8.74354C10.1018 14.5662 11.3804 14.0377 12.3451 13.0768L18.9139 6.50802C20.3615 5.05949 20.3615 2.69859 18.913 1.24901ZM10.9724 11.7021C10.3768 12.2957 9.58399 12.6231 8.74362 12.6231H7.53883V11.4184C7.53883 10.578 7.86625 9.78519 8.45889 9.19059L12.795 4.85449L15.3074 7.36695L10.9724 11.7021ZM17.5392 5.13527L16.6813 5.99318L14.1688 3.48073L15.0267 2.62285C15.7204 1.92915 16.8474 1.93111 17.5391 2.62285C18.2309 3.31554 18.2309 4.44255 17.5392 5.13527Z" fill="#09394D"/>
</g>
<defs>
<clipPath id="clip0_219_25535">
<rect width="20" height="20" fill="white"/>
</clipPath>
</defs>
</svg>
