<svg width="30" height="30" viewBox="0 0 30 30" fill="none" xmlns="http://www.w3.org/2000/svg">
<path fill-rule="evenodd" clip-rule="evenodd" d="M27.1226 19.7918C27.1226 22.3252 25.0618 24.3827 22.5317 24.3827H7.46977C4.93963 24.3827 2.87883 22.3251 2.87883 19.7918V10.2081C2.87826 9.39162 3.097 8.58997 3.51217 7.88692L10.8615 15.2362C11.961 16.339 13.4334 16.9466 15.0023 16.9466C16.568 16.9466 18.0404 16.339 19.1399 15.2362L26.4892 7.88692C26.9044 8.58996 27.1231 9.39162 27.1225 10.2081V19.7918H27.1226ZM22.5316 5.61723H7.46977C6.42492 5.61723 5.46041 5.97084 4.68885 6.55918L12.1121 13.9856C12.8805 14.7508 13.906 15.1752 15.0023 15.1752C16.0954 15.1752 17.1209 14.7508 17.8893 13.9856L25.3125 6.55918C24.541 5.97084 23.5765 5.61723 22.5316 5.61723ZM22.5316 3.84583H7.46977C3.96229 3.84583 1.10742 6.70069 1.10742 10.2082V19.7919C1.10742 23.3026 3.96229 26.1542 7.46977 26.1542H22.5316C26.0391 26.1542 28.894 23.3026 28.894 19.7919V10.2081C28.894 6.70063 26.0391 3.84583 22.5316 3.84583Z" fill="#09394D"/>
</svg>
