<svg width="36" height="36" viewBox="0 0 36 36" fill="none" xmlns="http://www.w3.org/2000/svg">
<g clip-path="url(#clip0_851_43986)">
<path d="M20.718 0.914019C20.5401 0.769456 20.3058 0.71419 20.0821 0.764042L0.58208 5.26404C0.238885 5.34293 -0.00327127 5.64992 3.34129e-05 6.00204V31.5021C0.000174038 31.8721 0.270244 32.1868 0.63601 32.2431L20.136 35.2431C20.5454 35.306 20.9283 35.0252 20.9913 34.6159C20.997 34.5782 21 34.5402 21 34.5022V1.50204C21.0007 1.27332 20.8968 1.05682 20.718 0.914019Z" fill="#4CAF50"/>
<path d="M35.2501 32.2519H20.25C19.8358 32.2519 19.5 31.9161 19.5 31.5019C19.5 31.0877 19.8358 30.7519 20.25 30.7519H34.5V5.25193H20.25C19.8358 5.25193 19.5 4.91612 19.5 4.50191C19.5 4.0877 19.8358 3.75195 20.25 3.75195H35.25C35.6642 3.75195 36 4.08777 36 4.50198V31.502C36 31.9162 35.6643 32.2519 35.2501 32.2519Z" fill="#4CAF50"/>
<path d="M14.2493 24.7544C13.9907 24.7544 13.7504 24.6212 13.6133 24.4019L6.11331 12.4019C5.88276 12.0578 5.97486 11.5919 6.31897 11.3614C6.66308 11.1308 7.12897 11.2229 7.35953 11.567C7.3686 11.5805 7.37718 11.5943 7.38533 11.6084L14.8854 23.6084C15.104 23.9602 14.9962 24.4226 14.6444 24.6413C14.5258 24.715 14.389 24.7542 14.2493 24.7544Z" fill="#FAFAFA"/>
<path d="M6.74848 24.754C6.33427 24.7531 5.99916 24.4167 6 24.0025C6.00028 23.8624 6.0398 23.7252 6.11398 23.6065L13.614 11.6065C13.8217 11.2481 14.2806 11.126 14.6389 11.3337C14.9973 11.5414 15.1195 12.0003 14.9118 12.3586C14.9036 12.3727 14.895 12.3864 14.886 12.3999L7.386 24.4C7.24903 24.6203 7.00793 24.7542 6.74848 24.754Z" fill="#FAFAFA"/>
<path d="M26.25 32.254C25.8358 32.254 25.5 31.9181 25.5 31.5039V4.50393C25.5 4.08972 25.8358 3.75391 26.25 3.75391C26.6642 3.75391 27 4.08972 27 4.50393V31.5039C27 31.9182 26.6642 32.254 26.25 32.254Z" fill="#4CAF50"/>
<path d="M35.2501 27.754H20.25C19.8358 27.754 19.5 27.4181 19.5 27.0039C19.5 26.5897 19.8358 26.2539 20.25 26.2539H35.25C35.6642 26.2539 36 26.5897 36 27.0039C36 27.4182 35.6643 27.754 35.2501 27.754Z" fill="#4CAF50"/>
<path d="M35.2501 23.254H20.25C19.8358 23.254 19.5 22.9181 19.5 22.5039C19.5 22.0897 19.8358 21.7539 20.25 21.7539H35.25C35.6642 21.7539 36 22.0897 36 22.5039C36 22.9182 35.6643 23.254 35.2501 23.254Z" fill="#4CAF50"/>
<path d="M35.2501 18.754H20.25C19.8358 18.754 19.5 18.4181 19.5 18.0039C19.5 17.5897 19.8358 17.2539 20.25 17.2539H35.25C35.6642 17.2539 36 17.5897 36 18.0039C36 18.4182 35.6643 18.754 35.2501 18.754Z" fill="#4CAF50"/>
<path d="M35.2501 14.254H20.25C19.8358 14.254 19.5 13.9181 19.5 13.5039C19.5 13.0897 19.8358 12.7539 20.25 12.7539H35.25C35.6642 12.7539 36 13.0897 36 13.5039C36 13.9181 35.6643 14.254 35.2501 14.254Z" fill="#4CAF50"/>
<path d="M35.2501 9.75395H20.25C19.8358 9.75395 19.5 9.41814 19.5 9.00393C19.5 8.58972 19.8358 8.25391 20.25 8.25391H35.25C35.6642 8.25391 36 8.58972 36 9.00393C36 9.41821 35.6643 9.75395 35.2501 9.75395Z" fill="#4CAF50"/>
</g>
<defs>
<clipPath id="clip0_851_43986">
<rect width="36" height="36" fill="white"/>
</clipPath>
</defs>
</svg>
