<svg width="17" height="17" viewBox="0 0 17 17" fill="none" xmlns="http://www.w3.org/2000/svg">
<path d="M0 5.71043C0.00558436 5.63147 0.00957319 5.55171 0.0167531 5.47274C0.0502593 5.09865 0.157958 4.74611 0.338253 4.41669C0.564818 4.00272 0.87834 3.66772 1.27882 3.41726C1.68488 3.16362 2.12764 3.01925 2.6071 3.00569C2.91504 2.99692 3.22377 3.0009 3.53251 3.0009C4.80654 3.0009 6.07978 3.0017 7.35381 3.0009C7.58835 3.0009 7.80694 3.05435 8.00638 3.17877C8.22098 3.31198 8.37734 3.49703 8.46988 3.73153C8.59832 4.05536 8.58556 4.3776 8.4292 4.68868C8.27602 4.99257 8.03111 5.19118 7.70323 5.2861C7.58596 5.3196 7.46629 5.32917 7.34423 5.32917C5.81651 5.32917 4.28879 5.32917 2.76107 5.32917C2.67172 5.32917 2.58556 5.34113 2.51057 5.39457C2.39569 5.47673 2.33586 5.5868 2.33586 5.73037C2.33666 6.16667 2.33506 6.60218 2.33506 7.03848C2.33506 9.43773 2.33506 11.837 2.33426 14.237C2.33426 14.3647 2.36697 14.4755 2.4643 14.5625C2.54328 14.6334 2.63582 14.6646 2.74192 14.6646C3.02114 14.6638 3.30036 14.6646 3.57958 14.6646C6.12206 14.6638 8.66374 14.6638 11.2062 14.663C11.2286 14.663 11.2517 14.663 11.274 14.663C11.5014 14.6606 11.6689 14.4939 11.6705 14.2665C11.6721 13.9491 11.6713 13.6308 11.6713 13.3134C11.6713 12.0954 11.6721 10.8782 11.6713 9.66027C11.6713 9.49755 11.6889 9.33882 11.7511 9.18807C11.8971 8.83233 12.154 8.59624 12.5241 8.49015C12.8584 8.39444 13.1767 8.44549 13.4671 8.63372C13.7583 8.82196 13.9314 9.09156 13.984 9.43534C13.996 9.5135 13.9992 9.59406 13.9992 9.67383C14 11.1949 13.9984 12.7152 14 14.2362C14.0008 14.8408 13.8301 15.3896 13.4751 15.8785C13.2006 16.2574 12.848 16.5446 12.4236 16.7424C12.0471 16.9178 11.6514 16.9968 11.2365 16.996C8.84962 16.9952 6.4635 16.996 4.07658 16.996C4.05584 16.996 4.0343 16.9984 4.01356 17C3.58037 17 3.14639 17 2.7132 17C2.69485 16.9976 2.67651 16.9944 2.65816 16.9936C2.40686 16.9896 2.16035 16.9497 1.92102 16.8732C1.27962 16.6682 0.776226 16.2821 0.417232 15.7118C0.188273 15.3481 0.0558436 14.9501 0.0175509 14.5218C0.010371 14.4436 0.00638213 14.3662 0.000797766 14.2881C0 11.427 0 8.56912 0 5.71043Z" fill="#09394D" fill-opacity="0.4"/>
<path d="M7.83817 6.51419L7.04121 8.90592C6.99471 9.05258 6.98941 9.2092 7.02589 9.35867C7.06237 9.50814 7.13923 9.6447 7.24807 9.75345C7.3569 9.8622 7.49353 9.93895 7.64303 9.97532C7.79253 10.0117 7.94914 10.0063 8.09577 9.95964L10.4875 9.16268C10.6099 9.1216 10.7211 9.05285 10.8126 8.96177L16.428 3.34635C16.7955 2.97839 17.002 2.47962 17.002 1.95958C17.002 1.43954 16.7955 0.940763 16.428 0.572812C16.0599 0.205977 15.5614 0 15.0417 0C14.522 0 14.0235 0.205977 13.6553 0.572812L8.03991 6.18907C7.94837 6.28034 7.8793 6.39164 7.83817 6.51419Z" fill="#09394D"/>
</svg>
