<svg width="24" height="24" viewBox="0 0 24 24" fill="none" xmlns="http://www.w3.org/2000/svg">
<g clip-path="url(#clip0_2001_6178)">
<path d="M1.20037 16.0001H2.00038V22.4C2.00038 23.2836 2.71671 23.9999 3.60034 23.9999H20.4001C21.2837 23.9999 22.0001 23.2836 22.0001 22.4V16.0001H22.8001C23.0046 16.0001 23.2058 15.9478 23.3845 15.8481C23.5631 15.7485 23.7133 15.6049 23.8209 15.4309C23.9284 15.2568 23.9897 15.0582 23.9988 14.8539C24.008 14.6495 23.9648 14.4462 23.8733 14.2633L22.2733 11.0633C22.1742 10.8635 22.0212 10.6955 21.8315 10.5783C21.6418 10.4611 21.4231 10.3994 21.2001 10.4001H20.8001V9.60011C20.9062 9.60011 21.008 9.55797 21.083 9.48296C21.158 9.40795 21.2001 9.30622 21.2001 9.20013C21.2001 9.09405 21.158 8.99232 21.083 8.91731C21.008 8.84229 20.9062 8.80015 20.8001 8.80015V8.00015C20.9062 8.00015 21.008 7.95801 21.083 7.883C21.158 7.80799 21.2001 7.70625 21.2001 7.60017C21.2001 7.49409 21.158 7.39235 21.083 7.31734C21.008 7.24233 20.9062 7.20019 20.8001 7.20019V5.92901C21.0321 5.84403 21.2328 5.69061 21.3757 5.48904C21.5185 5.28747 21.5968 5.04726 21.6001 4.80023C21.6001 4.13752 21.0629 3.60024 20.4002 3.60024H18.5086C18.7903 3.01726 18.867 2.35626 18.7262 1.72428C18.6437 1.41419 18.4963 1.12514 18.2938 0.876221C18.0913 0.627307 17.8382 0.4242 17.5514 0.280318C16.493 -0.274486 15.0242 -0.0676767 14.1255 1.64469L13.3803 3.06625L12.8003 1.90587V1.20023C12.8003 0.537518 12.263 0.000244141 11.6003 0.000244141H9.20033C8.53762 0.000244141 8.00034 0.537518 8.00034 1.20023V1.90583L7.32634 3.25342C7.24317 3.4194 7.20002 3.60255 7.20034 3.78821V6.01816C7.03594 6.04072 6.87481 6.08274 6.72035 6.14336C6.66571 5.8682 6.55145 5.60836 6.3856 5.3821C6.21974 5.15585 6.00632 4.96869 5.76036 4.83379C5.66478 4.79223 5.55669 4.78991 5.45942 4.82733C5.36214 4.86475 5.28347 4.9389 5.24038 5.0338C5.19696 5.12966 5.19279 5.23871 5.22875 5.33762C5.26471 5.43652 5.33795 5.51742 5.4328 5.56301C5.62884 5.68011 5.7807 5.85869 5.86479 6.07099C5.69118 6.02425 5.51219 6.00045 5.3324 6.00021C3.93643 6.00021 2.80043 7.43578 2.80043 9.20018C2.80151 9.60767 2.86601 10.0125 2.99163 10.4002H2.80043C2.57739 10.3994 2.35859 10.4611 2.16884 10.5783C1.97909 10.6955 1.82598 10.8635 1.72687 11.0633L0.126764 14.2633C0.0352405 14.4462 -0.00797893 14.6496 0.00121148 14.854C0.0104019 15.0584 0.0716969 15.257 0.179273 15.431C0.28685 15.6051 0.437135 15.7487 0.615852 15.8483C0.794569 15.9479 0.995781 16.0001 1.20037 16.0001ZM21.2001 22.4C21.2001 22.8418 20.8419 23.2 20.4001 23.2H3.60029C3.15846 23.2 2.80029 22.8418 2.80029 22.4V16.0001H21.2L21.2001 22.4ZM20.0001 10.4001H17.0953C17.1642 10.139 17.1994 9.87016 17.2001 9.60011H20.0001V10.4001ZM11.7386 10.4001C11.6466 10.1435 11.5997 9.87278 11.6002 9.60011C11.6015 8.27521 12.6753 7.20146 14.0002 7.20015C14.4915 7.19801 14.9713 7.34931 15.3726 7.63294C15.69 7.85343 15.9493 8.14756 16.1283 8.49015C16.3072 8.83275 16.4005 9.2136 16.4001 9.60011C16.4007 9.87278 16.3538 10.1435 16.2617 10.4001H11.7386ZM8.64744 2.40021H12.153L12.553 3.20022H8.24742L8.64744 2.40021ZM12.8002 4.00022V6.63578C11.5927 7.12529 10.802 8.29724 10.8002 9.60016C10.8009 9.8702 10.8361 10.139 10.905 10.4002H9.80904C9.93466 10.0125 9.99916 9.60767 10.0002 9.20018C10.0002 7.66659 9.14145 6.38261 8.00025 6.07263V4.00022H12.8002ZM20.0001 8.80015H17.0969C17.0234 8.51974 16.9121 8.25061 16.7661 8.00015H20.0001V8.80015ZM20.8001 4.80018C20.7961 4.905 20.7527 5.00445 20.6786 5.07862C20.6044 5.15279 20.5049 5.1962 20.4001 5.20016H19.2001C19.094 5.20016 18.9923 5.2423 18.9173 5.31731C18.8423 5.39232 18.8001 5.49406 18.8001 5.60014C18.8001 5.70622 18.8423 5.80795 18.9173 5.88296C18.9923 5.95797 19.094 6.00012 19.2001 6.00012H20.0001V7.2001H16.1142C16.0778 7.16851 16.0378 7.14052 16.0002 7.11052V6.00012H16.8002C16.9063 6.00012 17.008 5.95797 17.083 5.88296C17.158 5.80795 17.2002 5.70622 17.2002 5.60014C17.2002 5.49406 17.158 5.39232 17.083 5.31731C17.008 5.2423 16.9063 5.20016 16.8002 5.20016H15.6002C15.4941 5.20016 15.3924 5.15802 15.3174 5.08301C15.2424 5.008 15.2002 4.90626 15.2002 4.80018C15.2042 4.69536 15.2476 4.59591 15.3218 4.52174C15.396 4.44757 15.4954 4.40416 15.6002 4.4002H20.4002C20.5062 4.40021 20.608 4.44236 20.683 4.51737C20.758 4.59238 20.8001 4.69411 20.8001 4.80018ZM14.8338 2.01786C15.4154 0.908669 16.2922 0.524674 17.1793 0.990277C17.3674 1.08159 17.5337 1.21222 17.667 1.37335C17.8002 1.53448 17.8973 1.72235 17.9517 1.92425C18.055 2.46778 17.9538 3.0303 17.6677 3.50382L17.6173 3.60024H15.6001C14.941 3.60887 14.4088 4.14108 14.4001 4.80023C14.4004 5.04834 14.4775 5.29028 14.6207 5.49288C14.7639 5.69547 14.9663 5.8488 15.2001 5.93182V6.6422C14.8196 6.48443 14.4121 6.40224 14.0002 6.40019C13.8664 6.40106 13.7328 6.41028 13.6002 6.4278V4.3694L14.8338 2.01786ZM8.80025 1.20023C8.80025 1.1477 8.8106 1.09569 8.8307 1.04716C8.8508 0.998635 8.88026 0.954541 8.91741 0.9174C8.99242 0.842389 9.09415 0.800249 9.20023 0.800249H11.6002C11.6527 0.800249 11.7047 0.810595 11.7533 0.830695C11.8018 0.850796 11.8459 0.880258 11.883 0.9174C11.9202 0.954541 11.9496 0.998635 11.9697 1.04716C11.9898 1.09569 12.0002 1.1477 12.0002 1.20023V1.60021H8.80021L8.80025 1.20023ZM3.60034 9.20013C3.60034 7.87654 4.37714 6.80017 5.3323 6.80017C5.63218 6.80238 5.92258 6.90552 6.15668 7.09294C6.22656 7.14658 6.31219 7.17566 6.40029 7.17566C6.48838 7.17566 6.57401 7.14658 6.64389 7.09294C6.87799 6.9055 7.16839 6.80237 7.46827 6.80017C8.42348 6.80017 9.20023 7.87654 9.20023 9.20013C9.20105 9.61233 9.11874 10.0205 8.95822 10.4001H3.84231C3.6818 10.0205 3.5995 9.61233 3.60034 9.20013ZM0.843567 14.6212L2.44353 11.4213C2.47667 11.355 2.52758 11.2992 2.59058 11.2601C2.65359 11.221 2.72621 11.2003 2.80034 11.2001H21.2001C21.2747 11.1997 21.348 11.2202 21.4117 11.2593C21.4753 11.2984 21.5267 11.3545 21.5601 11.4213L23.16 14.6212C23.1906 14.6824 23.205 14.7504 23.2018 14.8186C23.1986 14.8869 23.178 14.9533 23.1419 15.0113C23.1058 15.0694 23.0554 15.1172 22.9956 15.1502C22.9357 15.1833 22.8684 15.2004 22.8 15.2H1.20033C1.13218 15.2 1.06517 15.1825 1.00566 15.1493C0.946156 15.1161 0.896119 15.0682 0.860299 15.0102C0.824479 14.9522 0.804063 14.8861 0.800987 14.818C0.797911 14.7499 0.812277 14.6822 0.842723 14.6212H0.843567V14.6212Z" fill="#09394D"/>
<path d="M15.9806 2.42223L16.6142 2.75462C16.6764 2.7873 16.7462 2.80302 16.8164 2.8002C16.8866 2.79738 16.9548 2.77613 17.0142 2.73857C17.0736 2.70101 17.1221 2.64847 17.1547 2.58624C17.1874 2.52401 17.203 2.45429 17.2002 2.38407C17.1973 2.31387 17.1761 2.24565 17.1385 2.18627C17.101 2.12688 17.0484 2.07843 16.9862 2.04578L16.3526 1.71338C16.2904 1.68071 16.2207 1.66498 16.1505 1.6678C16.0803 1.67062 16.012 1.69188 15.9526 1.72944C15.8932 1.767 15.8448 1.81953 15.8122 1.88176C15.7795 1.94399 15.7638 2.01372 15.7667 2.08393C15.7695 2.15414 15.7908 2.22236 15.8283 2.28174C15.8659 2.34112 15.9184 2.38957 15.9806 2.42223Z" fill="#09394D"/>
</g>
<defs>
<clipPath id="clip0_2001_6178">
<rect width="24" height="24" fill="white"/>
</clipPath>
</defs>
</svg>
