<svg width="18" height="18" viewBox="0 0 18 18" fill="none" xmlns="http://www.w3.org/2000/svg">
<g clip-path="url(#clip0_768_28906)">
<path d="M6.95973 6.99134C6.8081 6.82537 6.59221 6.72816 6.36746 6.72468C5.91538 6.71888 5.54139 7.0793 5.53373 7.53102C5.53127 7.67664 5.64732 7.79666 5.7929 7.79912C5.79445 7.79915 5.79592 7.79915 5.79747 7.79915C5.94101 7.79915 6.05858 7.68402 6.061 7.53991C6.06371 7.37858 6.19632 7.24914 6.3592 7.25195C6.44051 7.25322 6.5155 7.28697 6.57038 7.34701C6.6686 7.45455 6.83542 7.46208 6.94289 7.36385C7.0504 7.26566 7.05796 7.09885 6.95973 6.99134Z" fill="#09394D" stroke="#09394D" stroke-width="0.2"/>
<path d="M8.36251 7.85081C8.28169 7.66083 8.12436 7.51089 7.93076 7.43941C7.54144 7.2958 7.10744 7.49538 6.96319 7.88424C6.91253 8.02079 6.98218 8.17252 7.11869 8.22318C7.14892 8.2344 7.17989 8.23971 7.21034 8.23971C7.31746 8.23971 7.41815 8.17397 7.45759 8.06765C7.50091 7.95086 7.63144 7.8911 7.74816 7.93417C7.80683 7.95582 7.85268 7.99952 7.87718 8.05718C7.93417 8.19116 8.08907 8.25366 8.22301 8.19664C8.35706 8.13965 8.41946 7.98483 8.36251 7.85081Z" fill="#09394D" stroke="#09394D" stroke-width="0.2"/>
<path d="M10.0619 5.51553C9.95878 5.41262 9.79183 5.41283 9.68899 5.51591L9.44044 5.76496C9.33757 5.86804 9.33775 6.03499 9.44083 6.13782C9.49226 6.18919 9.55965 6.21485 9.62705 6.21485C9.69462 6.21485 9.76219 6.18905 9.81369 6.13744L10.0622 5.88839C10.1651 5.78531 10.1649 5.61836 10.0619 5.51553Z" fill="#09394D" stroke="#09394D" stroke-width="0.2"/>
<path d="M8.42149 8.91943H8.07007C7.92442 8.91943 7.8064 9.03749 7.8064 9.1831C7.8064 9.32872 7.92442 9.44678 8.07007 9.44678H8.42149C8.56714 9.44678 8.68516 9.32872 8.68516 9.1831C8.68516 9.03749 8.56714 8.91943 8.42149 8.91943Z" fill="#09394D" stroke="#09394D" stroke-width="0.2"/>
<path d="M11.116 8.91943H10.7645C10.6189 8.91943 10.5009 9.03749 10.5009 9.1831C10.5009 9.32872 10.6189 9.44678 10.7645 9.44678H11.116C11.2616 9.44678 11.3797 9.32872 11.3797 9.1831C11.3797 9.03749 11.2616 8.91943 11.116 8.91943Z" fill="#09394D" stroke="#09394D" stroke-width="0.2"/>
<path d="M17.9915 13.6738L17.9229 13.3031C17.8791 13.0663 17.6723 12.8945 17.4312 12.8945C17.4009 12.8945 17.3704 12.8972 17.3404 12.9028L15.9426 13.1595L16.5756 12.7364C16.7415 12.6255 16.8253 12.4271 16.7892 12.2304C16.7791 12.1765 16.7603 12.1247 16.733 12.0763L16.5414 11.7371C16.4758 11.6206 16.3638 11.534 16.2346 11.4997C16.1714 11.4828 16.1052 11.479 16.0406 11.4874C16.1111 11.0984 16.1475 10.7011 16.1475 10.2966C16.1475 10.1171 16.0396 9.96268 15.8854 9.89409C16.0868 9.41498 16.1006 8.86648 15.9015 8.36417C15.8853 8.32331 15.8613 8.28686 15.8303 8.25578C15.7995 8.22498 15.7635 8.20118 15.7226 8.18476C15.484 8.08974 15.2332 8.04157 14.9772 8.04157C14.9445 8.04157 14.9119 8.04242 14.8794 8.04396C14.8429 7.30804 14.2338 6.72055 13.4903 6.72055C13.3924 6.72055 13.2969 6.73095 13.2047 6.75036C13.2687 6.36716 13.231 5.96627 13.0818 5.58989C13.0657 5.54851 13.0417 5.51139 13.0089 5.47813C12.9774 5.44663 12.9405 5.42234 12.8995 5.40606C12.6425 5.30369 12.3723 5.2518 12.0965 5.2518C11.6811 5.2518 11.2838 5.36858 10.9407 5.58571C10.8154 5.22265 10.6087 4.88181 10.3199 4.59237C10.2354 4.50765 10.1229 4.46096 10.0031 4.46096C9.88344 4.46096 9.77094 4.50765 9.68625 4.59244L8.40962 5.87198C8.17337 5.66126 7.86249 5.5353 7.52506 5.5353C7.44849 5.5353 7.37118 5.54201 7.29528 5.55523C7.02025 5.60311 6.76716 5.73772 6.57314 5.93488C6.32434 5.81482 6.03933 5.77386 5.76543 5.82154C5.70517 5.83201 5.6467 5.84678 5.58996 5.86478V4.87879C5.58996 4.19978 5.04423 3.64639 4.36917 3.63472V3.07553C4.57581 3.03977 4.73359 2.85967 4.73359 2.64297V1.37597C4.73359 1.13368 4.53647 0.936523 4.29414 0.936523H2.14994C1.90761 0.936523 1.71049 1.13368 1.71049 1.37597V2.64297C1.71049 2.85967 1.86827 3.03977 2.07491 3.07553V3.63465C1.39985 3.64629 0.854153 4.19968 0.854153 4.87872V12.5743C0.327725 13.0497 0 13.713 0 14.4466C0 15.8896 1.2665 17.0636 2.82328 17.0636L13.3767 17.0605C13.7369 17.0604 14.0757 16.9021 14.3061 16.6262C14.5305 16.3577 14.6259 16.0089 14.5709 15.665L16.6788 16.0438C16.708 16.049 16.7379 16.0517 16.7675 16.0517C16.8726 16.0517 16.9733 16.0194 17.0586 15.9584C17.1683 15.8801 17.2425 15.7589 17.2623 15.6259L17.3194 15.2428C17.3276 15.1879 17.3267 15.1326 17.3167 15.0785C17.2804 14.8826 17.1312 14.7271 16.9366 14.6826L16.1937 14.5121L17.5901 14.2556C17.7218 14.2314 17.8361 14.1575 17.9119 14.0474C17.9875 13.9376 18.0158 13.8049 17.9915 13.6738ZM14.9772 8.56885C15.136 8.56885 15.292 8.59398 15.4421 8.64352C15.5762 9.05182 15.526 9.49222 15.316 9.85602H14.6057L14.8324 9.62884C14.9352 9.52576 14.935 9.3588 14.8319 9.25594C14.7288 9.15307 14.5618 9.15324 14.459 9.25636L14.3391 9.37656C14.2829 9.19146 14.1848 9.02573 14.0557 8.88979C14.3174 8.68198 14.6387 8.56885 14.9772 8.56885ZM13.4903 7.24782C13.9665 7.24782 14.3539 7.63636 14.3539 8.11396C14.3539 8.12282 14.3534 8.13157 14.3532 8.14036C14.0752 8.23075 13.8191 8.38174 13.6006 8.58681C13.5658 8.57363 13.5305 8.56139 13.4943 8.55137C13.4172 8.1347 13.1364 7.80072 12.7655 7.64473C12.9194 7.40623 13.1865 7.24782 13.4903 7.24782ZM12.0965 5.77907C12.2756 5.77907 12.4516 5.80804 12.6212 5.86534C12.7575 6.27062 12.7296 6.70596 12.556 7.08304C12.4132 7.21309 12.2974 7.37234 12.2182 7.55136C12.1711 7.5541 12.124 7.5593 12.0775 7.56739C11.8709 7.60335 11.6783 7.693 11.517 7.82301C11.4621 7.72246 11.3947 7.62968 11.3176 7.54615L11.9222 6.94013C12.0251 6.83706 12.0249 6.6701 11.9218 6.56727C11.8187 6.4644 11.6518 6.46458 11.5489 6.56769L10.888 7.23007C10.7623 7.17062 10.6264 7.12927 10.4835 7.10994C10.5452 6.79529 10.6979 6.49882 10.9341 6.26208C11.2448 5.95059 11.6577 5.77907 12.0965 5.77907ZM10.0761 9.85602H9.84754C9.80905 9.75807 9.71388 9.68864 9.60226 9.68864C9.49064 9.68864 9.39547 9.75811 9.35697 9.85602H9.0881C9.15054 9.75434 9.13792 9.61963 9.04978 9.53167C8.9467 9.4288 8.77975 9.42897 8.67688 9.53205L8.42836 9.7811C8.40604 9.80346 8.38888 9.82895 8.37626 9.85602H7.8396C7.63861 9.54759 7.51595 9.18355 7.50144 8.79191H11.6845C11.67 9.18355 11.5473 9.54759 11.3464 9.85602H10.7879C10.7753 9.82895 10.7581 9.80342 10.7358 9.78106L10.4873 9.53202C10.3844 9.42897 10.2175 9.42869 10.1144 9.5316C10.0262 9.61956 10.0136 9.75431 10.0761 9.85602ZM9.46286 8.26457C9.56225 7.89624 9.89824 7.62445 10.2964 7.62445C10.6946 7.62445 11.0306 7.89627 11.13 8.26457H9.46286ZM10.0021 5.02244C10.2529 5.29349 10.4187 5.61531 10.5 5.95358C10.3654 6.09987 10.2536 6.26151 10.1654 6.43353C10.1253 6.40899 10.0784 6.39462 10.028 6.39462H9.67665C9.53103 6.39462 9.41298 6.51267 9.41298 6.65829C9.41298 6.8039 9.53103 6.92196 9.67665 6.92196H9.98486C9.96753 6.99477 9.95407 7.06845 9.94429 7.1427C9.8396 7.17019 9.73961 7.20936 9.64603 7.25921C9.47028 6.95592 9.17926 6.7299 8.83445 6.63923C8.83434 6.63849 8.8342 6.63776 8.83406 6.63702C8.81339 6.5177 8.77732 6.40449 8.72814 6.29927L10.0021 5.02244ZM5.23566 7.40166C5.22019 7.35842 5.20848 7.31405 5.20078 7.26955C5.12516 6.83357 5.41907 6.41705 5.85581 6.341C5.90187 6.33299 5.94866 6.32891 5.99486 6.32891C6.16856 6.32891 6.33457 6.38432 6.47488 6.48912C6.53292 6.5325 6.60633 6.55004 6.67776 6.53767C6.7492 6.52526 6.81238 6.48402 6.85245 6.42358C6.97624 6.23687 7.16562 6.11298 7.3857 6.07466C7.43186 6.06661 7.47876 6.06257 7.52506 6.06257C7.91571 6.06257 8.24773 6.34206 8.31446 6.72719C8.32212 6.77131 8.32606 6.8173 8.32613 6.86388C8.32637 7.00036 8.43075 7.11412 8.56674 7.12607C8.86152 7.15198 9.11246 7.3375 9.2288 7.59885C9.07305 7.78578 8.96509 8.01401 8.9241 8.26457H7.4204C7.23344 8.26457 7.07302 8.37999 7.00612 8.54332C6.6753 8.31801 6.28542 8.19661 5.87684 8.19661C5.62086 8.19661 5.3701 8.24481 5.13132 8.33987C5.09082 8.35605 5.05461 8.37992 5.02374 8.41078C4.99245 8.44207 4.96844 8.47874 4.95269 8.51896C4.89201 8.67199 4.85154 8.82932 4.82968 8.98763C4.73518 8.88005 4.66859 8.74628 4.64258 8.59616C4.58056 8.23841 4.76784 7.88221 5.09785 7.72991C5.22188 7.67268 5.28168 7.53023 5.23566 7.40166ZM6.02168 9.78391L6.09361 9.85602H5.46034C5.31817 9.52618 5.29658 9.15075 5.412 8.79863C5.56226 8.74902 5.71825 8.72392 5.87684 8.72392C6.27414 8.72392 6.64788 8.8792 6.92916 9.16112C6.96657 9.19863 7.00141 9.23794 7.03414 9.27854C7.07882 9.48083 7.14748 9.67408 7.23594 9.85598H6.83857L6.395 9.4114C6.2921 9.30835 6.12514 9.30807 6.02214 9.41097C5.91902 9.51388 5.91881 9.68083 6.02168 9.78391ZM4.89879 9.85602H3.95882C4.00073 9.60061 4.15436 9.38288 4.36762 9.2545C4.49387 9.42363 4.65864 9.56039 4.84848 9.65302C4.86191 9.72144 4.8784 9.78925 4.89879 9.85602ZM2.23783 1.46387H4.20625V2.55508H2.23783V1.46387ZM3.84182 3.08242V3.63412H2.60229V3.08242H3.84182ZM1.38153 5.94803H3.09374C3.23939 5.94803 3.35741 5.82997 3.35741 5.68436C3.35741 5.53874 3.23939 5.42069 3.09374 5.42069H1.38153V4.87872C1.38153 4.48321 1.70229 4.16146 2.09657 4.16146H4.34755C4.74186 4.16146 5.06262 4.48321 5.06262 4.87872V5.42069H4.57029C4.42464 5.42069 4.30662 5.53874 4.30662 5.68436C4.30662 5.82997 4.42464 5.94803 4.57029 5.94803H5.06262V6.18206C4.76052 6.47825 4.60362 6.91261 4.68111 7.3594C4.68125 7.36028 4.68142 7.3612 4.68156 7.36211C4.25856 7.65233 4.03318 8.16828 4.12293 8.68623C4.12817 8.71647 4.13475 8.74621 4.14192 8.77563C4.01019 8.84827 3.89189 8.94206 3.7905 9.05182H1.38153V5.94803ZM1.38149 9.57913H3.48432C3.45634 9.668 3.43658 9.7605 3.42695 9.85602H3.38251C3.13983 9.85602 2.94236 10.0536 2.94236 10.2965C2.94236 10.7152 2.98127 11.1262 3.05668 11.5283C2.98092 11.5222 2.90323 11.519 2.8242 11.519C2.50533 11.519 2.20151 11.5696 1.96881 11.6615C1.61286 11.802 1.51445 12.0016 1.49297 12.1397C1.45525 12.1585 1.4182 12.1783 1.38149 12.1986V9.57913ZM4.72031 12.8182C4.81526 12.8942 4.87331 12.9588 4.90695 13.0054C4.90379 13.0054 4.90048 13.0054 4.89714 13.0054C4.7479 13.0054 4.47977 12.9453 4.17486 12.7765C4.06134 12.7136 3.95675 12.6426 3.87238 12.5711C3.77401 12.4877 3.62976 12.4878 3.53147 12.5711C3.44709 12.6427 3.34254 12.7137 3.22912 12.7764C2.92414 12.9453 2.65601 13.0054 2.50681 13.0054C2.5034 13.0054 2.50013 13.0054 2.49693 13.0054C2.53054 12.9588 2.58858 12.8942 2.68357 12.8182C2.76658 12.7517 2.80156 12.6419 2.77227 12.5397C2.74295 12.4375 2.65513 12.3628 2.54949 12.3504C2.29218 12.3203 2.12948 12.2548 2.05329 12.2071C2.14874 12.1477 2.39005 12.0463 2.8243 12.0463C3.18395 12.0463 3.44681 12.1219 3.57288 12.1927C3.65307 12.2377 3.75084 12.2377 3.83103 12.1928C3.95717 12.122 4.22007 12.0463 4.57972 12.0463C5.014 12.0463 5.25528 12.1477 5.35069 12.2072C5.27454 12.2549 5.1118 12.3203 4.85443 12.3505C4.74878 12.3629 4.66093 12.4375 4.63164 12.5398C4.60225 12.642 4.63723 12.7518 4.72031 12.8182ZM4.19286 16.0275L4.20193 16.0764C4.23329 16.2457 4.29942 16.4011 4.39181 16.5363H2.82328C1.55731 16.5363 0.527342 15.5989 0.527342 14.4466C0.527342 13.6591 1.00856 12.9723 1.71717 12.6162C1.79855 12.6769 1.90001 12.7293 2.02039 12.7716C1.97264 12.8531 1.93939 12.9408 1.93155 13.0322C1.92114 13.1538 1.95834 13.2693 2.03638 13.3574C2.1395 13.4738 2.29777 13.5328 2.50681 13.5328C2.78538 13.5328 3.1509 13.4225 3.48453 13.2378C3.56135 13.1953 3.63398 13.1504 3.70197 13.1035C3.76993 13.1504 3.84256 13.1953 3.91941 13.2379C4.25305 13.4225 4.61856 13.5328 4.89714 13.5328H4.89718C5.10614 13.5328 5.26442 13.4738 5.36749 13.3574C5.44558 13.2693 5.48281 13.1538 5.47237 13.0322C5.46453 12.9408 5.43127 12.8531 5.38353 12.7716C5.5039 12.7293 5.6054 12.6769 5.68678 12.6162C6.24875 12.8986 6.6675 13.3891 6.81681 13.9728L4.95195 14.6812C4.40608 14.8886 4.08683 15.4548 4.19286 16.0275ZM13.9014 16.2881C13.7714 16.4438 13.58 16.5331 13.3764 16.5332L13.0997 16.5333L12.9268 15.5997C12.9003 15.4565 12.7628 15.3618 12.6195 15.3885C12.4763 15.415 12.3817 15.5525 12.4082 15.6957L12.5634 16.5335L11.6562 16.5338L11.5393 15.9025C11.5127 15.7593 11.3752 15.6648 11.232 15.6913C11.0888 15.7178 10.9942 15.8553 11.0207 15.9985L11.1199 16.534L9.00963 16.5348L8.8508 15.6774C8.82422 15.5343 8.68676 15.4397 8.5435 15.4662C8.40031 15.4927 8.30574 15.6303 8.33224 15.7735L8.47333 16.535L5.3921 16.5362C5.39203 16.5362 5.39196 16.5362 5.39189 16.5362C5.06241 16.5362 4.78004 16.3025 4.72034 15.9802L4.71127 15.9313C4.65168 15.6095 4.83161 15.291 5.13912 15.1742L6.17542 14.7805L6.25262 15.1972C6.27614 15.3241 6.38695 15.4129 6.51154 15.4129C6.52751 15.4129 6.54368 15.4114 6.55992 15.4084C6.70307 15.3819 6.79765 15.2443 6.7711 15.1011L6.67643 14.5902L8.21468 14.0058C8.35081 13.9541 8.41926 13.8018 8.36754 13.6657C8.31583 13.5295 8.16335 13.4611 8.02744 13.5128L7.31163 13.7847C7.11082 13.0738 6.59493 12.4799 5.91083 12.1397C5.88935 12.0016 5.79095 11.802 5.43503 11.6614C5.20233 11.5695 4.89851 11.5189 4.57965 11.5189C4.3602 11.5189 4.15064 11.5432 3.96564 11.5873V11.428C3.96564 11.2824 3.84763 11.1644 3.70197 11.1644C3.64042 11.1644 3.58395 11.1856 3.53906 11.221C3.49747 10.9459 3.4742 10.6666 3.47033 10.3833H12.0585C12.2042 10.3833 12.3222 10.2652 12.3222 10.1196C12.3222 9.974 12.2042 9.85595 12.0585 9.85595H11.9507C12.1186 9.51015 12.2134 9.12245 12.2134 8.7127C12.2134 8.48008 12.0354 8.28844 11.8086 8.26668C11.9073 8.17355 12.0306 8.11076 12.168 8.08682C12.2082 8.07982 12.2491 8.07627 12.2895 8.07627C12.6299 8.07627 12.9191 8.3198 12.9772 8.65526C12.984 8.69411 12.9874 8.73418 12.9874 8.77444C12.9876 8.91098 13.092 9.02482 13.228 9.03677C13.5432 9.06444 13.801 9.30143 13.855 9.61305C13.8693 9.69592 13.8675 9.77769 13.8532 9.85595H13.5703C13.4246 9.85595 13.3066 9.974 13.3066 10.1196C13.3066 10.2652 13.4246 10.3833 13.5703 10.3833H15.6196C15.613 10.867 15.5507 11.3394 15.4346 11.7978L14.0056 12.6414C13.9182 12.3372 13.7151 12.0792 13.4352 11.9225C13.1213 11.7469 12.7482 11.7194 12.4118 11.8472L9.46884 12.9652C9.33268 13.0169 9.26427 13.1692 9.31598 13.3054C9.3677 13.4415 9.52013 13.5099 9.65608 13.4582L10.0438 13.3109L10.1642 13.9609C10.1877 14.0878 10.2985 14.1766 10.4231 14.1766C10.439 14.1766 10.4552 14.1751 10.4715 14.1721C10.6146 14.1456 10.7092 14.0081 10.6827 13.8649L10.5449 13.1206L12.599 12.3403C12.7893 12.268 13.0002 12.2835 13.1776 12.3828C13.3548 12.4819 13.4774 12.6528 13.5143 12.8515L14.0477 15.7313C14.0845 15.9299 14.0312 16.1328 13.9014 16.2881ZM14.8421 14.2243C14.7191 14.2469 14.629 14.3528 14.6262 14.4778C14.6234 14.6029 14.7089 14.7126 14.8308 14.7406L16.7939 15.1909L16.7449 15.5199L14.4691 15.1109L14.1134 13.1902L16.0956 12.0201L16.2607 12.3124L14.5888 13.4301C14.4848 13.4996 14.444 13.6326 14.491 13.7484C14.538 13.8643 14.66 13.9312 14.783 13.9086L17.4093 13.4262L17.4678 13.7419L14.8421 14.2243Z" fill="#09394D" stroke="#09394D" stroke-width="0.2"/>
</g>
<defs>
<clipPath id="clip0_768_28906">
<rect width="18" height="18" fill="white"/>
</clipPath>
</defs>
</svg>
