<svg width="24" height="24" viewBox="0 0 24 24" fill="none" xmlns="http://www.w3.org/2000/svg">
<g clip-path="url(#clip0_219_32163)">
<path d="M19.1484 4.45334H17.9766V1.64018C17.9766 1.11532 17.7226 0.618351 17.2973 0.310805C16.872 0.00325768 16.3205 -0.0822892 15.822 0.0821483L4.33763 3.86993C4.00955 3.9777 3.72393 4.18641 3.52158 4.46623C3.31923 4.74606 3.2105 5.08268 3.21094 5.42801V22.3594C3.21094 23.264 3.94692 24 4.85156 24H19.1484C20.0531 24 20.7891 23.264 20.7891 22.3594V6.09396C20.7891 5.18937 20.0531 4.45334 19.1484 4.45334ZM19.3828 22.3594C19.3828 22.4886 19.2777 22.5937 19.1484 22.5937H4.85156C4.72233 22.5937 4.61719 22.4886 4.61719 22.3594V6.09396C4.61719 5.96473 4.72233 5.85959 4.85156 5.85959H19.1484C19.2777 5.85959 19.3828 5.96473 19.3828 6.09396V22.3594ZM16.2625 1.41762C16.3615 1.38499 16.437 1.42409 16.4733 1.45029C16.5096 1.47649 16.5704 1.53598 16.5704 1.64018V4.45338H7.05835L16.2625 1.41762Z" fill="#F46523"/>
<path d="M7.3125 13.9914H16.6875C17.0758 13.9914 17.3906 13.6766 17.3906 13.2883C17.3906 12.9 17.0758 12.5852 16.6875 12.5852H16.4838C16.1807 10.6446 14.6437 9.10756 12.7031 8.80446V8.45215C12.7031 8.06384 12.3883 7.74902 12 7.74902C11.6117 7.74902 11.2969 8.06384 11.2969 8.45215V8.80446C9.35634 9.10756 7.81927 10.6446 7.51617 12.5852H7.3125C6.92419 12.5852 6.60938 12.9 6.60938 13.2883C6.60938 13.6766 6.92419 13.9914 7.3125 13.9914ZM12 10.1562C13.4854 10.1562 14.7325 11.1956 15.0525 12.5852H8.94745C9.26747 11.1956 10.5147 10.1562 12 10.1562ZM7.58517 15.891C7.19686 15.891 6.88205 16.2058 6.88205 16.5941C6.88205 16.9824 7.19686 17.2972 7.58517 17.2972H10.9602C11.3485 17.2972 11.6633 16.9824 11.6633 16.5941C11.6633 16.2058 11.3485 15.891 10.9602 15.891H7.58517ZM16.5117 18.7035H7.48828C7.09997 18.7035 6.78516 19.0183 6.78516 19.4066C6.78516 19.7949 7.09997 20.1097 7.48828 20.1097H16.5117C16.9 20.1097 17.2148 19.7949 17.2148 19.4066C17.2148 19.0183 16.9 18.7035 16.5117 18.7035Z" fill="#F46523"/>
</g>
<defs>
<clipPath id="clip0_219_32163">
<rect width="24" height="24" fill="white"/>
</clipPath>
</defs>
</svg>
