<svg width="20" height="25" viewBox="0 0 20 25" fill="none" xmlns="http://www.w3.org/2000/svg">
<path d="M7.53452 9.28367C7.53452 9.06549 7.7127 8.8873 7.93088 8.8873C8.14543 8.8873 8.32361 9.06549 8.32361 9.28367C8.32361 9.43276 8.44361 9.55276 8.5927 9.55276C8.74179 9.55276 8.86179 9.43276 8.86179 9.28367C8.86179 8.7673 8.44361 8.34912 7.93088 8.34912C7.68303 8.34912 7.44532 8.44758 7.27006 8.62284C7.0948 8.7981 6.99634 9.03581 6.99634 9.28367C6.99634 9.43276 7.11634 9.55276 7.26543 9.55276C7.41452 9.55276 7.53452 9.43276 7.53452 9.28367ZM11.4109 9.55276C11.56 9.55276 11.68 9.43276 11.68 9.28367C11.68 9.06549 11.8582 8.8873 12.0763 8.8873C12.2909 8.8873 12.4691 9.06549 12.4691 9.28367C12.4691 9.43276 12.5891 9.55276 12.7382 9.55276C12.8872 9.55276 13.0072 9.43276 13.0072 9.28367C13.0072 8.7673 12.5891 8.34912 12.0763 8.34912C11.8285 8.34912 11.5908 8.44758 11.4155 8.62284C11.2403 8.7981 11.1418 9.03581 11.1418 9.28367C11.1418 9.43276 11.2618 9.55276 11.4109 9.55276ZM9.99997 10.0218C10.1491 10.0218 10.2691 9.90185 10.2691 9.75276V9.28367C10.2691 9.13458 10.1491 9.01458 9.99997 9.01458C9.85088 9.01458 9.73088 9.13458 9.73088 9.28367V9.75276C9.73088 9.90185 9.85088 10.0218 9.99997 10.0218ZM12.6509 11.6837C12.72 11.5273 12.7054 11.3491 12.6145 11.2037C12.52 11.0582 12.3636 10.9746 12.1927 10.9746H7.81452C7.64361 10.9746 7.48725 11.0618 7.3927 11.2037C7.29816 11.3455 7.28361 11.5273 7.35634 11.6837C7.82179 12.7309 8.86179 13.4073 10.0036 13.4073C11.1454 13.4073 12.1854 12.7309 12.6509 11.6837ZM7.8727 11.5164L12.1382 11.5018C11.9483 11.9089 11.6463 12.2534 11.2676 12.4949C10.8889 12.7365 10.4491 12.865 9.99997 12.8655C9.09088 12.8655 8.26179 12.3382 7.8727 11.5164Z" fill="#09394D" stroke="#09394D" stroke-width="0.3"/>
<path d="M19.3891 23.7309H18.9054V20.7636C18.9054 18.2618 16.8691 16.2255 14.3636 16.2255H11.5854V14.9745C12.1963 14.7418 12.7636 14.3818 13.2509 13.8982C14.0509 13.0982 14.5527 12.0436 14.6727 10.9382C15.0243 10.8862 15.3499 10.7228 15.6019 10.4722C15.8538 10.2215 16.0189 9.89675 16.0727 9.54545C16.0873 9.51273 16.0982 9.47273 16.0982 9.43273V7.09455C16.0982 3.73455 13.3636 1 9.99998 1C6.63634 1 3.90543 3.73455 3.90543 7.09818V9.43636C3.90543 9.47636 3.91634 9.51273 3.93089 9.54909C4.03998 10.2655 4.60725 10.8327 5.32361 10.9418C5.40725 12.0618 5.87998 13.1018 6.67998 13.9018C7.17816 14.4 7.77089 14.7636 8.41452 14.9964V16.2291H5.63634C3.13452 16.2291 1.09452 18.2655 1.09452 20.7673V23.7345H0.610888C0.461797 23.7345 0.341797 23.8545 0.341797 24.0036C0.341797 24.1527 0.461797 24.2727 0.610888 24.2727H19.3891C19.5382 24.2727 19.6582 24.1527 19.6582 24.0036C19.6586 23.968 19.652 23.9326 19.6387 23.8995C19.6254 23.8665 19.6057 23.8364 19.5806 23.811C19.5556 23.7856 19.5258 23.7655 19.4929 23.7517C19.46 23.738 19.4247 23.7309 19.3891 23.7309ZM18.3636 20.7636V23.7309H16.1636V21.5818C16.1636 21.4327 16.0436 21.3127 15.8945 21.3127C15.7454 21.3127 15.6254 21.4327 15.6254 21.5818V23.7309H10.2727V18.6509L11.3382 19.4C11.4584 19.4841 11.5966 19.539 11.7418 19.5605C11.8869 19.5819 12.0351 19.5693 12.1745 19.5236C12.4582 19.4291 12.6763 19.2109 12.7709 18.9273L13.4909 16.7673H14.3673C16.5709 16.7673 18.3636 18.56 18.3636 20.7636ZM12.2582 18.7564C12.2383 18.8156 12.205 18.8694 12.1608 18.9135C12.1166 18.9576 12.0628 18.9909 12.0035 19.0106C11.9443 19.0304 11.8812 19.0361 11.8194 19.0273C11.7576 19.0185 11.6986 18.9955 11.6473 18.96L10.3891 18.0764L11.4436 16.7709H12.92L12.2582 18.7564ZM14.6982 10.3891V8.19636C14.9427 8.25713 15.1599 8.39782 15.3154 8.59611C15.4709 8.7944 15.5557 9.03894 15.5563 9.29091C15.5563 9.82182 15.1927 10.2691 14.6982 10.3891ZM9.99998 1.54182C13.0618 1.54182 15.5563 4.03273 15.5563 7.09818V8.07273C15.3183 7.85095 15.0195 7.70533 14.6982 7.65455V7.18545C14.6982 7.10909 14.6654 7.03273 14.6073 6.98182C14.5491 6.93091 14.4691 6.90546 14.3927 6.91636C9.33816 7.58182 8.76725 4.46909 8.74543 4.33818C8.7346 4.2718 8.69969 4.21173 8.64737 4.16947C8.59504 4.12721 8.52897 4.10571 8.4618 4.10909C8.39422 4.11273 8.33049 4.14169 8.28332 4.19022C8.23614 4.23874 8.20898 4.30326 8.20725 4.37091C8.1818 5.08 7.88725 5.71273 7.40361 6.10909C6.93089 6.49455 6.31634 6.63273 5.6218 6.51636C5.54543 6.50545 5.4618 6.52364 5.39998 6.57455C5.33816 6.62545 5.30543 6.70182 5.30543 6.78182V7.65455C4.97452 7.70909 4.67998 7.85818 4.44725 8.07273V7.09818C4.44361 4.03273 6.93816 1.54182 9.99998 1.54182ZM5.3018 10.3927C4.81089 10.2727 4.44361 9.82545 4.44361 9.29455C4.44361 8.76364 4.81089 8.32 5.3018 8.2V10.3927ZM5.84725 10.5782V7.08364C6.56725 7.13818 7.22907 6.94182 7.7418 6.52727C8.11271 6.22545 8.39634 5.81455 8.56361 5.34545C9.13816 6.38182 10.5963 7.86545 14.1563 7.49091V10.4655C14.1491 11.5927 13.6836 12.7055 12.8691 13.5164C12.0836 14.3018 11.0654 14.7345 9.99998 14.7345H9.99271C8.89334 14.7344 7.83907 14.2975 7.0618 13.52C6.67474 13.1344 6.36807 12.6758 6.15958 12.1709C5.95109 11.6659 5.84493 11.1245 5.84725 10.5782ZM9.98907 15.2727H9.99998C10.3563 15.2727 10.7054 15.2255 11.0473 15.1418V16.4L10.9454 16.5273L9.99998 17.6982L8.95271 16.4V15.1527C9.29089 15.2291 9.63634 15.2727 9.98907 15.2727ZM8.55271 16.7673L9.60725 18.0727L8.35271 18.9564C8.24725 19.0291 8.11998 19.0509 7.99634 19.0073C7.87634 18.9673 7.7818 18.8764 7.7418 18.7527L7.07998 16.7673H8.55271ZM1.63271 20.7636C1.63271 18.56 3.42543 16.7673 5.63271 16.7673H6.50907L7.22907 18.9273C7.29102 19.1153 7.41096 19.2789 7.57168 19.3946C7.7324 19.5102 7.92562 19.5719 8.12361 19.5709C8.31271 19.5709 8.5018 19.5127 8.6618 19.4L9.73089 18.6509V20.0909H9.07998C8.93089 20.0909 8.81089 20.2109 8.81089 20.36C8.81089 20.5091 8.93089 20.6291 9.07998 20.6291H9.73089V21.3236H9.07998C8.93089 21.3236 8.81089 21.4436 8.81089 21.5927C8.81089 21.7418 8.93089 21.8618 9.07998 21.8618H9.73089V22.5564H9.07998C8.93089 22.5564 8.81089 22.6764 8.81089 22.8255C8.81089 22.9745 8.93089 23.0945 9.07998 23.0945H9.73089V23.7236H4.37452V21.5818C4.37452 21.4327 4.25452 21.3127 4.10543 21.3127C3.95634 21.3127 3.83634 21.4327 3.83634 21.5818V23.7309H1.63271V20.7636Z" fill="#09394D" stroke="#09394D" stroke-width="0.3"/>
</svg>
