<svg width="26" height="26" viewBox="0 0 26 26" fill="none" xmlns="http://www.w3.org/2000/svg">
<path d="M1.6 25H24.4C24.5591 25 24.7117 24.9368 24.8243 24.8243C24.9368 24.7117 25 24.5591 25 24.4V10C25 9.84087 24.9368 9.68826 24.8243 9.57574C24.7117 9.46321 24.5591 9.4 24.4 9.4H21.4V4C21.4 3.84087 21.3368 3.68826 21.2243 3.57574C21.1117 3.46321 20.9591 3.4 20.8 3.4H17.8V2.8C17.8 2.32261 17.6104 1.86477 17.2728 1.52721C16.9352 1.18964 16.4774 1 16 1H10C9.52261 1 9.06477 1.18964 8.72721 1.52721C8.38964 1.86477 8.2 2.32261 8.2 2.8V3.4H5.2C5.04087 3.4 4.88826 3.46321 4.77574 3.57574C4.66321 3.68826 4.6 3.84087 4.6 4V9.4H1.6C1.44087 9.4 1.28826 9.46321 1.17574 9.57574C1.06321 9.68826 1 9.84087 1 10V24.4C1 24.5591 1.06321 24.7117 1.17574 24.8243C1.28826 24.9368 1.44087 25 1.6 25ZM21.4 10.6H23.8V23.8H21.4V10.6ZM14.8 23.8H11.2V19.6H14.8V23.8ZM9.4 2.8C9.4 2.64087 9.46321 2.48826 9.57574 2.37574C9.68826 2.26321 9.84087 2.2 10 2.2H16C16.1591 2.2 16.3117 2.26321 16.4243 2.37574C16.5368 2.48826 16.6 2.64087 16.6 2.8V8.8C16.6 8.95913 16.5368 9.11174 16.4243 9.22427C16.3117 9.33679 16.1591 9.4 16 9.4H10C9.84087 9.4 9.68826 9.33679 9.57574 9.22427C9.46321 9.11174 9.4 8.95913 9.4 8.8V2.8ZM5.8 4.6H8.2V8.8C8.2 9.27739 8.38964 9.73523 8.72721 10.0728C9.06477 10.4104 9.52261 10.6 10 10.6H16C16.4774 10.6 16.9352 10.4104 17.2728 10.0728C17.6104 9.73523 17.8 9.27739 17.8 8.8V4.6H20.2V23.8H16V19C16 18.8409 15.9368 18.6883 15.8243 18.5757C15.7117 18.4632 15.5591 18.4 15.4 18.4H10.6C10.4409 18.4 10.2883 18.4632 10.1757 18.5757C10.0632 18.6883 10 18.8409 10 19V23.8H5.8V4.6ZM2.2 10.6H4.6V23.8H2.2V10.6Z" fill="#F46523" stroke="#F46523" stroke-width="0.3"/>
<path d="M11.2 6.40039H12.4V7.60039C12.4 7.75952 12.4632 7.91213 12.5757 8.02465C12.6883 8.13718 12.8409 8.20039 13 8.20039C13.1591 8.20039 13.3118 8.13718 13.4243 8.02465C13.5368 7.91213 13.6 7.75952 13.6 7.60039V6.40039H14.8C14.9591 6.40039 15.1118 6.33718 15.2243 6.22465C15.3368 6.11213 15.4 5.95952 15.4 5.80039C15.4 5.64126 15.3368 5.48865 15.2243 5.37613C15.1118 5.2636 14.9591 5.20039 14.8 5.20039H13.6V4.00039C13.6 3.84126 13.5368 3.68865 13.4243 3.57613C13.3118 3.4636 13.1591 3.40039 13 3.40039C12.8409 3.40039 12.6883 3.4636 12.5757 3.57613C12.4632 3.68865 12.4 3.84126 12.4 4.00039V5.20039H11.2C11.0409 5.20039 10.8883 5.2636 10.7757 5.37613C10.6632 5.48865 10.6 5.64126 10.6 5.80039C10.6 5.95952 10.6632 6.11213 10.7757 6.22465C10.8883 6.33718 11.0409 6.40039 11.2 6.40039ZM8.80001 13.6004H10C10.1591 13.6004 10.3118 13.5372 10.4243 13.4247C10.5368 13.3121 10.6 13.1595 10.6 13.0004C10.6 12.8413 10.5368 12.6886 10.4243 12.5761C10.3118 12.4636 10.1591 12.4004 10 12.4004H8.80001C8.64088 12.4004 8.48827 12.4636 8.37575 12.5761C8.26323 12.6886 8.20001 12.8413 8.20001 13.0004C8.20001 13.1595 8.26323 13.3121 8.37575 13.4247C8.48827 13.5372 8.64088 13.6004 8.80001 13.6004ZM10.6 16.0004C10.6 15.8413 10.5368 15.6886 10.4243 15.5761C10.3118 15.4636 10.1591 15.4004 10 15.4004H8.80001C8.64088 15.4004 8.48827 15.4636 8.37575 15.5761C8.26323 15.6886 8.20001 15.8413 8.20001 16.0004C8.20001 16.1595 8.26323 16.3121 8.37575 16.4247C8.48827 16.5372 8.64088 16.6004 8.80001 16.6004H10C10.1591 16.6004 10.3118 16.5372 10.4243 16.4247C10.5368 16.3121 10.6 16.1595 10.6 16.0004ZM12.4 13.6004H13.6C13.7591 13.6004 13.9118 13.5372 14.0243 13.4247C14.1368 13.3121 14.2 13.1595 14.2 13.0004C14.2 12.8413 14.1368 12.6886 14.0243 12.5761C13.9118 12.4636 13.7591 12.4004 13.6 12.4004H12.4C12.2409 12.4004 12.0883 12.4636 11.9757 12.5761C11.8632 12.6886 11.8 12.8413 11.8 13.0004C11.8 13.1595 11.8632 13.3121 11.9757 13.4247C12.0883 13.5372 12.2409 13.6004 12.4 13.6004ZM12.4 16.6004H13.6C13.7591 16.6004 13.9118 16.5372 14.0243 16.4247C14.1368 16.3121 14.2 16.1595 14.2 16.0004C14.2 15.8413 14.1368 15.6886 14.0243 15.5761C13.9118 15.4636 13.7591 15.4004 13.6 15.4004H12.4C12.2409 15.4004 12.0883 15.4636 11.9757 15.5761C11.8632 15.6886 11.8 15.8413 11.8 16.0004C11.8 16.1595 11.8632 16.3121 11.9757 16.4247C12.0883 16.5372 12.2409 16.6004 12.4 16.6004ZM16 13.6004H17.2C17.3591 13.6004 17.5118 13.5372 17.6243 13.4247C17.7368 13.3121 17.8 13.1595 17.8 13.0004C17.8 12.8413 17.7368 12.6886 17.6243 12.5761C17.5118 12.4636 17.3591 12.4004 17.2 12.4004H16C15.8409 12.4004 15.6883 12.4636 15.5757 12.5761C15.4632 12.6886 15.4 12.8413 15.4 13.0004C15.4 13.1595 15.4632 13.3121 15.5757 13.4247C15.6883 13.5372 15.8409 13.6004 16 13.6004ZM16 16.6004H17.2C17.3591 16.6004 17.5118 16.5372 17.6243 16.4247C17.7368 16.3121 17.8 16.1595 17.8 16.0004C17.8 15.8413 17.7368 15.6886 17.6243 15.5761C17.5118 15.4636 17.3591 15.4004 17.2 15.4004H16C15.8409 15.4004 15.6883 15.4636 15.5757 15.5761C15.4632 15.6886 15.4 15.8413 15.4 16.0004C15.4 16.1595 15.4632 16.3121 15.5757 16.4247C15.6883 16.5372 15.8409 16.6004 16 16.6004Z" fill="#F46523" stroke="#F46523" stroke-width="0.3"/>
</svg>
