<svg width="24" height="24" viewBox="0 0 24 24" fill="none" xmlns="http://www.w3.org/2000/svg">
<path fill-rule="evenodd" clip-rule="evenodd" d="M6 4C6 2.34315 7.34315 1 9 1H16.1716C16.9672 1 17.7303 1.31607 18.2929 1.87868L22.1213 5.70711C22.6839 6.26972 23 7.03278 23 7.82843V20C23 21.6569 21.6569 23 20 23H9C7.34315 23 6 21.6569 6 20V19C6 18.4477 6.44772 18 7 18C7.55228 18 8 18.4477 8 19V20C8 20.5523 8.44772 21 9 21H20C20.5523 21 21 20.5523 21 20V9H18C16.3431 9 15 7.65685 15 6V3H9C8.44772 3 8 3.44772 8 4V11C8 11.5523 7.55228 12 7 12C6.44772 12 6 11.5523 6 11V4ZM17 3.41421L20.5858 7H18C17.4477 7 17 6.55228 17 6V3.41421ZM14.7071 15.7071L11.7072 18.7071C11.3167 19.0976 10.6835 19.0976 10.293 18.7071C9.90243 18.3166 9.90243 17.6834 10.2929 17.2929L11.5858 16H2C1.44771 16 1 15.5523 1 15C1 14.4477 1.44771 14 2 14H11.5858L10.2929 12.7071C9.90243 12.3166 9.90243 11.6834 10.293 11.2929C10.6835 10.9024 11.3167 10.9024 11.7072 11.2929L14.7071 14.2929C15.0976 14.6834 15.0976 15.3166 14.7071 15.7071Z" fill="#09394D"/>
</svg>
