<svg width="29" height="29" viewBox="0 0 29 29" fill="none" xmlns="http://www.w3.org/2000/svg">
<path d="M13.7276 13.0007C13.7276 13.0007 14.27 13.0017 14.9992 13.0007C15.7279 12.9997 16.2736 13.0007 16.2736 13.0007C16.4088 13.0007 16.5216 13.0007 16.6338 13.0007C17.9591 13.0007 19.2837 12.9987 20.609 13.0017C21.4332 13.0027 22.0063 13.8362 21.9999 15.0169C21.9936 16.1726 21.4237 16.9931 20.6154 16.9951C19.1849 16.9991 17.7544 16.9961 16.2736 16.9961H14.9181H13.7289C13.5905 16.9961 13.4777 16.9961 13.3649 16.9961C12.0077 16.9961 10.6512 17.0081 9.29468 16.9901C8.38566 16.9781 7.78262 15.6453 8.07394 14.3355C8.25625 13.515 8.72861 13.0047 9.32655 13.0027C10.662 12.9977 11.9975 13.0017 13.3336 13.0017C13.4477 13.0007 13.5638 13.0007 13.7276 13.0007Z" fill="white"/>
</svg>
