<svg width="18" height="18" viewBox="0 0 18 18" fill="none" xmlns="http://www.w3.org/2000/svg">
<g clip-path="url(#clip0_1043_33630)">
<mask id="mask0_1043_33630" style="mask-type:luminance" maskUnits="userSpaceOnUse" x="0" y="0" width="18" height="18">
<path d="M0 1.90735e-06H18V18H0V1.90735e-06Z" fill="white"/>
</mask>
<g mask="url(#mask0_1043_33630)">
<path d="M10.582 10.9688L9.79102 12.9023H8.20898L7.41797 10.9688" stroke="#3A6171" stroke-width="0.878906" stroke-miterlimit="10"/>
<path d="M8.20898 12.9023L7.52344 17.4023" stroke="#3A6171" stroke-width="0.878906" stroke-miterlimit="10"/>
<path d="M9.79102 12.9023L10.4766 17.4023" stroke="#3A6171" stroke-width="0.878906" stroke-miterlimit="10"/>
<path d="M10.2737 5.66003C10.2737 4.95719 9.70391 4.38745 9.0011 4.38745C8.29826 4.38745 7.72852 4.95719 7.72852 5.66003C7.72852 6.36287 8.29826 6.93262 9.0011 6.93262C9.70391 6.93262 10.2737 6.36287 10.2737 5.66003Z" stroke="#09394D" stroke-opacity="0.8" stroke-width="0.878906" stroke-miterlimit="10"/>
<path d="M12.8609 5.66016C12.8609 5.47773 12.8479 5.29836 12.8234 5.12269L14.0609 4.15913L12.8307 2.02838L11.3774 2.6183C11.0959 2.39801 10.7829 2.21615 10.4465 2.08013L10.2308 0.527345H7.77049L7.55481 2.08013C7.21836 2.21615 6.90544 2.39801 6.62391 2.6183L5.17058 2.02838L3.94043 4.15913L5.17786 5.12269C5.15339 5.29836 5.14042 5.47773 5.14042 5.66016C5.14042 5.84258 5.15339 6.02195 5.17786 6.19763L3.94043 7.16119L5.17058 9.29194L6.62391 8.70202C6.90544 8.9223 7.21836 9.10417 7.55481 9.24019L7.77049 10.793H10.2308L10.4465 9.24019C10.7829 9.10417 11.0959 8.9223 11.3774 8.70202L12.8307 9.29194L14.0609 7.16119L12.8234 6.19763C12.8479 6.02195 12.8609 5.84258 12.8609 5.66016Z" stroke="#09394D" stroke-width="0.878906" stroke-miterlimit="10"/>
<path d="M14.291 17.4727V15.0214C14.291 12.6861 12.3979 10.793 10.0626 10.793H7.9374C5.60211 10.793 3.70898 12.6861 3.70898 15.0214V17.4727H14.291Z" stroke="#09394D" stroke-width="0.878906" stroke-miterlimit="10"/>
<path d="M11.6367 14.7859H12.6914" stroke="#09394D" stroke-opacity="0.8" stroke-width="0.878906" stroke-miterlimit="10"/>
</g>
</g>
<defs>
<clipPath id="clip0_1043_33630">
<rect width="18" height="18" fill="white"/>
</clipPath>
</defs>
</svg>
