<svg width="24" height="24" viewBox="0 0 24 24" fill="none" xmlns="http://www.w3.org/2000/svg">
<g clip-path="url(#clip0_2007_6968)">
<path d="M12 5.33337C13.4728 5.33337 14.6667 4.13946 14.6667 2.66669C14.6667 1.19392 13.4728 0 12 0C10.5272 0 9.33331 1.19392 9.33331 2.66669C9.33331 4.13946 10.5272 5.33337 12 5.33337Z" fill="#09394D"/>
<path d="M12 14.6666C13.4728 14.6666 14.6667 13.4727 14.6667 11.9999C14.6667 10.5272 13.4728 9.33325 12 9.33325C10.5272 9.33325 9.33331 10.5272 9.33331 11.9999C9.33331 13.4727 10.5272 14.6666 12 14.6666Z" fill="#09394D"/>
<path d="M12 23.9999C13.4728 23.9999 14.6667 22.806 14.6667 21.3332C14.6667 19.8604 13.4728 18.6665 12 18.6665C10.5272 18.6665 9.33331 19.8604 9.33331 21.3332C9.33331 22.806 10.5272 23.9999 12 23.9999Z" fill="#09394D"/>
</g>
<defs>
<clipPath id="clip0_2007_6968">
<rect width="24" height="24" fill="white"/>
</clipPath>
</defs>
</svg>
