<svg width="21" height="21" viewBox="0 0 21 21" fill="none" xmlns="http://www.w3.org/2000/svg">
<g clip-path="url(#clip0_1204_55003)">
<path d="M20.3512 14.1747L18.0762 5.97504C17.5904 4.22103 16.5319 2.67991 15.0691 1.59696C13.6063 0.514016 11.8233 -0.0485292 10.0039 -0.00113947C8.18448 0.0462502 6.43319 0.700851 5.02876 1.85848C3.62432 3.01611 2.64745 4.61024 2.25362 6.38716L0.493996 14.3059C0.408852 14.6896 0.410929 15.0874 0.500073 15.4701C0.589217 15.8529 0.763154 16.2107 1.00905 16.5172C1.25495 16.8238 1.56653 17.0712 1.92081 17.2412C2.27509 17.4112 2.66302 17.4996 3.056 17.4997H6.21212C6.41295 18.4887 6.94951 19.3778 7.7309 20.0165C8.51228 20.6552 9.49043 21.004 10.4996 21.004C11.5088 21.004 12.487 20.6552 13.2683 20.0165C14.0497 19.3778 14.5863 18.4887 14.7871 17.4997H17.8234C18.2277 17.4995 18.6266 17.4059 18.9888 17.2262C19.351 17.0465 19.6668 16.7855 19.9116 16.4637C20.1563 16.1419 20.3235 15.7678 20.3999 15.3708C20.4763 14.9737 20.4599 14.5644 20.3521 14.1747H20.3512ZM10.4996 19.2497C9.95864 19.2474 9.43157 19.0781 8.99051 18.7648C8.54945 18.4516 8.21594 18.0097 8.03562 17.4997H12.9636C12.7833 18.0097 12.4498 18.4516 12.0087 18.7648C11.5677 19.0781 11.0406 19.2474 10.4996 19.2497ZM18.519 15.404C18.4374 15.5123 18.3315 15.5999 18.21 15.6599C18.0885 15.7199 17.9545 15.7507 17.819 15.7497H3.056C2.92497 15.7496 2.79563 15.7202 2.67751 15.6635C2.55939 15.6068 2.45551 15.5243 2.37354 15.4221C2.29157 15.3199 2.2336 15.2006 2.20391 15.073C2.17422 14.9453 2.17356 14.8127 2.202 14.6848L3.96162 6.76604C4.27168 5.37147 5.03901 4.12057 6.14164 3.21218C7.24428 2.30379 8.61892 1.79006 10.047 1.75265C11.4752 1.71524 12.8748 2.15629 14.0235 3.0057C15.1722 3.8551 16.004 5.06412 16.3866 6.44054L18.6616 14.6402C18.6988 14.7698 18.7052 14.9064 18.6805 15.0389C18.6557 15.1715 18.6004 15.2965 18.519 15.404Z" fill="#09394D" fill-opacity="0.8"/>
</g>
<defs>
<clipPath id="clip0_1204_55003">
<rect width="21" height="21" fill="white"/>
</clipPath>
</defs>
</svg>
