<svg width="29" height="29" viewBox="0 0 29 29" fill="none" xmlns="http://www.w3.org/2000/svg">
<path d="M14.2855 25.9999C13.7677 25.9999 13.2711 25.7942 12.905 25.4281C12.5388 25.062 12.3331 24.5654 12.3331 24.0476V4.52412C12.3331 4.00633 12.5388 3.50974 12.905 3.14361C13.2711 2.77747 13.7677 2.57178 14.2855 2.57178C14.8033 2.57178 15.2999 2.77747 15.666 3.14361C16.0321 3.50974 16.2378 4.00633 16.2378 4.52412V24.0476C16.2378 24.5654 16.0321 25.062 15.666 25.4281C15.2999 25.7942 14.8033 25.9999 14.2855 25.9999Z" fill="white"/>
<path d="M2.57178 14.2854C2.57178 13.7676 2.77747 13.271 3.14361 12.9048C3.50974 12.5387 4.00633 12.333 4.52412 12.333H24.0476C24.5654 12.333 25.062 12.5387 25.4281 12.9048C25.7942 13.271 25.9999 13.7676 25.9999 14.2854C25.9999 14.8031 25.7942 15.2997 25.4281 15.6659C25.062 16.032 24.5654 16.2377 24.0476 16.2377H4.52412C4.00633 16.2377 3.50974 16.032 3.14361 15.6659C2.77747 15.2997 2.57178 14.8031 2.57178 14.2854Z" fill="white"/>
</svg>
