<svg width="40" height="40" viewBox="0 0 40 40" fill="none" xmlns="http://www.w3.org/2000/svg">
<g clip-path="url(#clip0_369_51232)">
<circle cx="20" cy="20" r="20" fill="white"/>
<path d="M34.1485 5.85151C26.3448 -1.9505 13.6539 -1.9505 5.85022 5.85151C-1.95007 13.6535 -1.95007 26.3478 5.85022 34.1498C9.75205 38.05 14.8761 39.9992 20.0002 39.9992C25.1243 39.9992 30.2467 38.0499 34.1485 34.1498C41.9505 26.3478 41.9505 13.6535 34.1485 5.85151ZM28.2524 25.8959C28.9043 26.5479 28.9043 27.6017 28.2524 28.2537C28.0977 28.4087 27.914 28.5317 27.7116 28.6155C27.5093 28.6994 27.2924 28.7424 27.0735 28.7422C26.8545 28.7424 26.6376 28.6994 26.4353 28.6155C26.233 28.5317 26.0492 28.4087 25.8945 28.2537L20.0001 22.3575L14.1074 28.2519C13.7947 28.5646 13.3706 28.7403 12.9285 28.7405C12.7095 28.7407 12.4926 28.6977 12.2903 28.6138C12.088 28.53 11.9042 28.407 11.7496 28.2519C11.0976 27.6 11.0976 26.5445 11.7496 25.8942L17.6423 19.9998L11.7479 14.1054C11.096 13.4534 11.096 12.3979 11.7479 11.7476C12.3982 11.0957 13.4537 11.0957 14.1057 11.7476L20.0001 17.642L25.8945 11.7476C26.5464 11.0957 27.6003 11.0957 28.2522 11.7476C28.9042 12.3979 28.9042 13.4534 28.2522 14.1054L22.3578 19.9998L28.2524 25.8959Z" fill="#09394D"/>
</g>
<defs>
<clipPath id="clip0_369_51232">
<rect width="40" height="40" fill="white"/>
</clipPath>
</defs>
</svg>
