<svg width="16" height="16" viewBox="0 0 16 16" fill="none" xmlns="http://www.w3.org/2000/svg">
<path d="M0.136719 2.59063L2.58672 0.140625C2.77422 -0.046875 3.07822 -0.046875 3.26597 0.140625L7.99597 4.87112L12.7262 0.140875C12.9137 -0.046625 13.2177 -0.046625 13.4055 0.140875L15.8555 2.59087C16.043 2.77837 16.043 3.08237 15.8555 3.27012L11.125 8.00012L15.8552 12.7304C16.0427 12.9179 16.0427 13.2219 15.8552 13.4096L13.4052 15.8596C13.2177 16.0471 12.9137 16.0471 12.726 15.8596L7.99597 11.1291L3.26572 15.8594C3.07822 16.0469 2.77422 16.0469 2.58647 15.8594L0.136469 13.4094C-0.0510311 13.2219 -0.0510311 12.9179 0.136469 12.7301L4.86697 8.00012L0.136719 3.26988C-0.0510311 3.08263 -0.0510311 2.77838 0.136719 2.59063Z" fill="#E00303"/>
</svg>
