<svg width="26" height="26" viewBox="0 0 26 26" fill="none" xmlns="http://www.w3.org/2000/svg">
<path d="M18.5 25C14.916 25 12 22.084 12 18.5C12 14.916 14.916 12 18.5 12C22.084 12 25 14.916 25 18.5C25 22.084 22.084 25 18.5 25ZM18.5 13C15.467 13 13 15.468 13 18.5C13 21.532 15.467 24 18.5 24C21.533 24 24 21.532 24 18.5C24 15.468 21.533 13 18.5 13Z" fill="#F46523" stroke="#F46523" stroke-width="0.5"/>
<path d="M17.5 21C17.3674 20.9997 17.2403 20.9473 17.146 20.854L15.146 18.854C15.0549 18.7597 15.0045 18.6334 15.0057 18.5023C15.0068 18.3712 15.0594 18.2458 15.1521 18.1531C15.2448 18.0604 15.3702 18.0078 15.5013 18.0067C15.6324 18.0055 15.7587 18.0559 15.853 18.147L17.475 19.769L20.623 16.171C20.6661 16.1212 20.7186 16.0803 20.7775 16.0509C20.8364 16.0214 20.9006 16.0039 20.9663 15.9993C21.032 15.9947 21.098 16.0031 21.1605 16.0241C21.2229 16.0451 21.2806 16.0782 21.3302 16.1215C21.3798 16.1649 21.4204 16.2176 21.4495 16.2767C21.4787 16.3358 21.4959 16.4 21.5002 16.4658C21.5044 16.5315 21.4956 16.5974 21.4743 16.6598C21.453 16.7221 21.4196 16.7796 21.376 16.829L17.876 20.829C17.8308 20.8805 17.7755 20.9222 17.7136 20.9516C17.6517 20.981 17.5845 20.9975 17.516 21H17.5ZM10.5 22H3.5C2.8372 21.9992 2.20178 21.7356 1.73311 21.2669C1.26444 20.7982 1.00079 20.1628 1 19.5L1 6.5C1 5.121 2.122 4 3.5 4H5.5C5.63261 4 5.75979 4.05268 5.85355 4.14645C5.94732 4.24021 6 4.36739 6 4.5C6 4.63261 5.94732 4.75979 5.85355 4.85355C5.75979 4.94732 5.63261 5 5.5 5H3.5C2.673 5 2 5.673 2 6.5V19.5C2 20.327 2.673 21 3.5 21H10.5C10.6326 21 10.7598 21.0527 10.8536 21.1464C10.9473 21.2402 11 21.3674 11 21.5C11 21.6326 10.9473 21.7598 10.8536 21.8536C10.7598 21.9473 10.6326 22 10.5 22ZM17.5 10C17.3674 10 17.2402 9.94732 17.1464 9.85355C17.0527 9.75979 17 9.63261 17 9.5V6.5C17 5.673 16.327 5 15.5 5H13.5C13.3674 5 13.2402 4.94732 13.1464 4.85355C13.0527 4.75979 13 4.63261 13 4.5C13 4.36739 13.0527 4.24021 13.1464 4.14645C13.2402 4.05268 13.3674 4 13.5 4H15.5C16.878 4 18 5.121 18 6.5V9.5C18 9.63261 17.9473 9.75979 17.8536 9.85355C17.7598 9.94732 17.6326 10 17.5 10Z" fill="#F46523" stroke="#F46523" stroke-width="0.5"/>
<path d="M12.5 7H6.5C5.673 7 5 6.327 5 5.5V3.5C5 3.36739 5.05268 3.24021 5.14645 3.14645C5.24022 3.05268 5.36739 3 5.5 3H7.05C7.283 1.86 8.292 1 9.5 1C10.708 1 11.717 1.86 11.95 3H13.5C13.6326 3 13.7598 3.05268 13.8536 3.14645C13.9473 3.24021 14 3.36739 14 3.5V5.5C14 6.327 13.327 7 12.5 7ZM6 4V5.5C6 5.63261 6.05268 5.75979 6.14645 5.85355C6.24022 5.94732 6.36739 6 6.5 6H12.5C12.6326 6 12.7598 5.94732 12.8536 5.85355C12.9473 5.75979 13 5.63261 13 5.5V4H11.5C11.3674 4 11.2402 3.94732 11.1464 3.85355C11.0527 3.75979 11 3.63261 11 3.5C11 2.673 10.327 2 9.5 2C8.673 2 8 2.673 8 3.5C8 3.63261 7.94732 3.75979 7.85355 3.85355C7.75979 3.94732 7.63261 4 7.5 4H6ZM14.5 10H4.5C4.36739 10 4.24021 9.94732 4.14645 9.85355C4.05268 9.75979 4 9.63261 4 9.5C4 9.36739 4.05268 9.24021 4.14645 9.14645C4.24021 9.05268 4.36739 9 4.5 9H14.5C14.6326 9 14.7598 9.05268 14.8536 9.14645C14.9473 9.24021 15 9.36739 15 9.5C15 9.63261 14.9473 9.75979 14.8536 9.85355C14.7598 9.94732 14.6326 10 14.5 10ZM11.5 13H4.5C4.36739 13 4.24021 12.9473 4.14645 12.8536C4.05268 12.7598 4 12.6326 4 12.5C4 12.3674 4.05268 12.2402 4.14645 12.1464C4.24021 12.0527 4.36739 12 4.5 12H11.5C11.6326 12 11.7598 12.0527 11.8536 12.1464C11.9473 12.2402 12 12.3674 12 12.5C12 12.6326 11.9473 12.7598 11.8536 12.8536C11.7598 12.9473 11.6326 13 11.5 13ZM9.5 16H4.5C4.36739 16 4.24021 15.9473 4.14645 15.8536C4.05268 15.7598 4 15.6326 4 15.5C4 15.3674 4.05268 15.2402 4.14645 15.1464C4.24021 15.0527 4.36739 15 4.5 15H9.5C9.63261 15 9.75979 15.0527 9.85355 15.1464C9.94732 15.2402 10 15.3674 10 15.5C10 15.6326 9.94732 15.7598 9.85355 15.8536C9.75979 15.9473 9.63261 16 9.5 16Z" fill="#F46523" stroke="#F46523" stroke-width="0.5"/>
</svg>
