<svg width="24" height="24" viewBox="0 0 24 24" fill="none" xmlns="http://www.w3.org/2000/svg">
<g clip-path="url(#clip0_851_46871)">
<path d="M19.0133 3.7962C16.9933 1.77399 14.3071 0.660156 11.4496 0.660156C8.59167 0.660156 5.90552 1.77399 3.88586 3.79584C1.86365 5.81567 0.75 8.50183 0.75 11.3596C0.75 14.1551 1.81801 16.7846 3.75723 18.7884C3.77133 18.8071 3.78745 18.8225 3.80475 18.8382C3.83221 18.8663 3.85803 18.8955 3.88586 18.9233C5.92786 20.9653 8.64954 22.0619 11.4404 22.0619C12.4014 22.0619 13.37 21.9246 14.3224 21.6583L14.328 21.668C14.4825 21.9343 14.825 22.0258 15.0919 21.872L15.8544 21.4318C16.1052 21.6191 16.3773 21.7761 16.6659 21.8998V22.7811C16.6659 23.0895 16.9167 23.3403 17.2255 23.3403H19.2598C19.5685 23.3403 19.8193 23.0893 19.8193 22.7806V21.8998C20.1079 21.7761 20.38 21.6191 20.6309 21.4318L21.394 21.8724C21.5237 21.9469 21.6749 21.9667 21.8192 21.9277C21.9631 21.8889 22.0836 21.7962 22.158 21.6671L23.1742 19.9062C23.2496 19.7767 23.2698 19.6259 23.231 19.4812C23.1925 19.3365 23.0999 19.2157 22.9702 19.1408L22.2089 18.7012C22.2279 18.5424 22.2378 18.3853 22.2378 18.2322C22.2378 18.0793 22.2283 17.9224 22.2089 17.7631L22.9706 17.3233C23.1002 17.2484 23.1929 17.1274 23.2313 16.9827C23.2698 16.8383 23.2493 16.6874 23.1749 16.559L22.158 14.7974C22.0833 14.6677 21.9624 14.5751 21.8177 14.5364C21.7686 14.5235 21.7189 14.5196 21.6693 14.5199C22.8404 10.7476 21.8453 6.62379 19.0133 3.7962ZM4.4165 4.32611C6.29443 2.4458 8.79236 1.41016 11.4496 1.41016C14.1064 1.41016 16.6044 2.4458 18.483 4.32648C21.2902 7.12948 22.1559 11.3008 20.7106 14.9865L20.6309 15.0325C20.3804 14.8453 20.1083 14.6884 19.8193 14.5645V13.6832C19.8193 13.3748 19.5685 13.124 19.2598 13.124H17.2255C16.9192 13.124 16.6706 13.3712 16.6666 13.6765C15.7739 12.9682 14.7286 12.5052 13.6079 12.318C14.6753 11.614 15.382 10.4059 15.382 9.03448C15.382 6.86615 13.6179 5.10211 11.4492 5.10211C9.28088 5.10211 7.51685 6.86615 7.51685 9.03448C7.51685 10.4063 8.224 11.6148 9.29187 12.3187C6.53279 12.7881 4.32019 14.9396 3.79092 17.7066C2.30814 15.926 1.5 13.7054 1.5 11.3596C1.5 8.70233 2.53564 6.20459 4.4165 4.32611ZM11.4492 12.217C9.69434 12.217 8.26685 10.7894 8.26685 9.03448C8.26685 7.27979 9.69434 5.85211 11.4492 5.85211C13.2041 5.85211 14.632 7.27979 14.632 9.03448C14.632 10.7894 13.2041 12.217 11.4492 12.217ZM4.44617 18.4208C4.73039 15.3502 7.31996 12.9674 10.422 12.9674H12.4768C14.024 12.9674 15.4722 13.55 16.5901 14.6024C16.3303 14.7204 16.0826 14.862 15.8544 15.0325L15.0916 14.5919C14.825 14.4379 14.4825 14.53 14.3273 14.7972L13.3103 16.5592C13.2356 16.6887 13.2158 16.8394 13.2543 16.9836C13.2931 17.1281 13.3857 17.249 13.5154 17.3237L14.2764 17.7631C14.2573 17.9213 14.2474 18.0786 14.2474 18.2322C14.2474 18.3859 14.2573 18.5432 14.2764 18.7012L13.5161 19.1404C13.3865 19.215 13.2935 19.3354 13.2546 19.4799C13.2158 19.6244 13.2356 19.7755 13.3103 19.9053L13.9354 20.9881C10.5455 21.8658 6.95197 20.9067 4.44617 18.4208ZM22.4304 16.7692L21.7203 17.179C21.5197 17.2946 21.4135 17.5179 21.4497 17.7463C21.475 17.9116 21.4878 18.0751 21.4878 18.2322C21.4878 18.3892 21.475 18.5527 21.4501 18.7162C21.4135 18.9464 21.5197 19.1697 21.72 19.2851L22.4301 19.6951L21.6035 21.1273L20.8909 20.7157C20.6917 20.6009 20.4474 20.621 20.2676 20.765C20.0127 20.9688 19.7289 21.1323 19.4238 21.2516C19.2085 21.3359 19.0693 21.5384 19.0693 21.7673V22.5903H17.4159V21.7665C17.4159 21.538 17.2771 21.3359 17.0614 21.2515C16.7563 21.1324 16.4725 20.9688 16.2177 20.765C16.0371 20.621 15.7932 20.6014 15.594 20.7161L14.8817 21.1273L14.0552 19.6953L14.7649 19.2853C14.9648 19.1701 15.071 18.9476 15.0359 18.7173C15.0103 18.553 14.9974 18.3897 14.9974 18.2322C14.9974 18.0746 15.0103 17.9113 15.0359 17.7463C15.071 17.5168 14.9648 17.2942 14.7653 17.1792L14.0552 16.7692L14.8817 15.337L15.5944 15.7486C15.7932 15.8632 16.0371 15.8431 16.218 15.6993C16.4725 15.4955 16.7563 15.3318 17.0618 15.2126C17.2771 15.1284 17.4159 14.9261 17.4159 14.697V13.874H19.0693V14.6978C19.0693 14.9263 19.2085 15.1284 19.4238 15.2126C19.7292 15.3322 20.0131 15.4959 20.2676 15.6993C20.4478 15.8431 20.6917 15.8627 20.8912 15.7482L21.6035 15.337L22.4304 16.7692Z" fill="#09394D" stroke="#09394D" stroke-width="0.2"/>
<path d="M18.2426 16.0352C17.0308 16.0352 16.0449 17.021 16.0449 18.2328C16.0449 19.4444 17.0308 20.4302 18.2426 20.4302C19.454 20.4302 20.4398 19.4444 20.4398 18.2328C20.4398 17.021 19.454 16.0352 18.2426 16.0352ZM18.2426 19.6802C17.4442 19.6802 16.7949 19.0309 16.7949 18.2328C16.7949 17.4346 17.4442 16.7852 18.2426 16.7852C19.0405 16.7852 19.6898 17.4346 19.6898 18.2328C19.6898 19.0309 19.0405 19.6802 18.2426 19.6802Z" fill="#09394D" stroke="#09394D" stroke-width="0.2"/>
</g>
<defs>
<clipPath id="clip0_851_46871">
<rect width="24" height="24" fill="white"/>
</clipPath>
</defs>
</svg>
