<svg width="24" height="24" viewBox="0 0 24 24" fill="none" xmlns="http://www.w3.org/2000/svg">
<g clip-path="url(#clip0_2014_5412)">
<path d="M17.5 24C13.916 24 11 21.084 11 17.5C11 13.916 13.916 11 17.5 11C21.084 11 24 13.916 24 17.5C24 21.084 21.084 24 17.5 24ZM17.5 12C14.467 12 12 14.468 12 17.5C12 20.532 14.467 23 17.5 23C20.533 23 23 20.532 23 17.5C23 14.468 20.533 12 17.5 12Z" fill="#09394D"/>
<path d="M16.5 20C16.3674 19.9997 16.2403 19.9473 16.146 19.854L14.146 17.854C14.0549 17.7597 14.0045 17.6334 14.0057 17.5023C14.0068 17.3712 14.0594 17.2458 14.1521 17.1531C14.2448 17.0604 14.3702 17.0078 14.5013 17.0067C14.6324 17.0055 14.7587 17.0559 14.853 17.147L16.475 18.769L19.623 15.171C19.6661 15.1212 19.7186 15.0803 19.7775 15.0509C19.8364 15.0214 19.9006 15.0039 19.9663 14.9993C20.032 14.9947 20.098 15.0031 20.1605 15.0241C20.2229 15.0451 20.2806 15.0782 20.3302 15.1215C20.3798 15.1649 20.4204 15.2176 20.4495 15.2767C20.4787 15.3358 20.4959 15.4 20.5002 15.4658C20.5044 15.5315 20.4956 15.5974 20.4743 15.6598C20.453 15.7221 20.4196 15.7796 20.376 15.829L16.876 19.829C16.8308 19.8805 16.7755 19.9222 16.7136 19.9516C16.6517 19.981 16.5845 19.9975 16.516 20H16.5ZM9.5 21H2.5C1.8372 20.9992 1.20178 20.7356 0.73311 20.2669C0.264441 19.7982 0.000793929 19.1628 0 18.5L0 5.5C0 4.121 1.122 3 2.5 3H4.5C4.63261 3 4.75979 3.05268 4.85355 3.14645C4.94732 3.24021 5 3.36739 5 3.5C5 3.63261 4.94732 3.75979 4.85355 3.85355C4.75979 3.94732 4.63261 4 4.5 4H2.5C1.673 4 1 4.673 1 5.5V18.5C1 19.327 1.673 20 2.5 20H9.5C9.63261 20 9.75979 20.0527 9.85355 20.1464C9.94732 20.2402 10 20.3674 10 20.5C10 20.6326 9.94732 20.7598 9.85355 20.8536C9.75979 20.9473 9.63261 21 9.5 21ZM16.5 9C16.3674 9 16.2402 8.94732 16.1464 8.85355C16.0527 8.75979 16 8.63261 16 8.5V5.5C16 4.673 15.327 4 14.5 4H12.5C12.3674 4 12.2402 3.94732 12.1464 3.85355C12.0527 3.75979 12 3.63261 12 3.5C12 3.36739 12.0527 3.24021 12.1464 3.14645C12.2402 3.05268 12.3674 3 12.5 3H14.5C15.878 3 17 4.121 17 5.5V8.5C17 8.63261 16.9473 8.75979 16.8536 8.85355C16.7598 8.94732 16.6326 9 16.5 9Z" fill="#09394D"/>
<path d="M11.5 6H5.5C4.673 6 4 5.327 4 4.5V2.5C4 2.36739 4.05268 2.24021 4.14645 2.14645C4.24022 2.05268 4.36739 2 4.5 2H6.05C6.283 0.86 7.292 0 8.5 0C9.708 0 10.717 0.86 10.95 2H12.5C12.6326 2 12.7598 2.05268 12.8536 2.14645C12.9473 2.24021 13 2.36739 13 2.5V4.5C13 5.327 12.327 6 11.5 6ZM5 3V4.5C5 4.63261 5.05268 4.75979 5.14645 4.85355C5.24022 4.94732 5.36739 5 5.5 5H11.5C11.6326 5 11.7598 4.94732 11.8536 4.85355C11.9473 4.75979 12 4.63261 12 4.5V3H10.5C10.3674 3 10.2402 2.94732 10.1464 2.85355C10.0527 2.75979 10 2.63261 10 2.5C10 1.673 9.327 1 8.5 1C7.673 1 7 1.673 7 2.5C7 2.63261 6.94732 2.75979 6.85355 2.85355C6.75979 2.94732 6.63261 3 6.5 3H5ZM13.5 9H3.5C3.36739 9 3.24021 8.94732 3.14645 8.85355C3.05268 8.75979 3 8.63261 3 8.5C3 8.36739 3.05268 8.24021 3.14645 8.14645C3.24021 8.05268 3.36739 8 3.5 8H13.5C13.6326 8 13.7598 8.05268 13.8536 8.14645C13.9473 8.24021 14 8.36739 14 8.5C14 8.63261 13.9473 8.75979 13.8536 8.85355C13.7598 8.94732 13.6326 9 13.5 9ZM10.5 12H3.5C3.36739 12 3.24021 11.9473 3.14645 11.8536C3.05268 11.7598 3 11.6326 3 11.5C3 11.3674 3.05268 11.2402 3.14645 11.1464C3.24021 11.0527 3.36739 11 3.5 11H10.5C10.6326 11 10.7598 11.0527 10.8536 11.1464C10.9473 11.2402 11 11.3674 11 11.5C11 11.6326 10.9473 11.7598 10.8536 11.8536C10.7598 11.9473 10.6326 12 10.5 12ZM8.5 15H3.5C3.36739 15 3.24021 14.9473 3.14645 14.8536C3.05268 14.7598 3 14.6326 3 14.5C3 14.3674 3.05268 14.2402 3.14645 14.1464C3.24021 14.0527 3.36739 14 3.5 14H8.5C8.63261 14 8.75979 14.0527 8.85355 14.1464C8.94732 14.2402 9 14.3674 9 14.5C9 14.6326 8.94732 14.7598 8.85355 14.8536C8.75979 14.9473 8.63261 15 8.5 15Z" fill="#09394D"/>
</g>
<defs>
<clipPath id="clip0_2014_5412">
<rect width="24" height="24" fill="white"/>
</clipPath>
</defs>
</svg>
