<svg width="16" height="16" viewBox="0 0 16 16" fill="none" xmlns="http://www.w3.org/2000/svg">
<path d="M7.07031 0.5C10.7963 0.5 13.8203 3.524 13.8203 7.25C13.8203 10.976 10.7963 14 7.07031 14C3.34431 14 0.320312 10.976 0.320312 7.25C0.320312 3.524 3.34431 0.5 7.07031 0.5ZM7.07031 12.5C9.97094 12.5 12.3203 10.1506 12.3203 7.25C12.3203 4.34938 9.97094 2 7.07031 2C4.16969 2 1.82031 4.34938 1.82031 7.25C1.82031 10.1506 4.16969 12.5 7.07031 12.5ZM13.4343 12.5533L15.5556 14.6746L14.4949 15.7353L12.3736 13.614L13.4343 12.5533Z" fill="#09394D"/>
</svg>
