<svg width="24" height="24" viewBox="0 0 24 24" fill="none" xmlns="http://www.w3.org/2000/svg">
<path fill-rule="evenodd" clip-rule="evenodd" d="M13.819 20.5178C13.232 20.6418 12.6235 20.7073 12 20.7073C7.1705 20.7073 3.25 16.7868 3.25 11.9573C3.25 11.5433 2.914 11.2073 2.5 11.2073C2.086 11.2073 1.75 11.5433 1.75 11.9573C1.75 17.6143 6.343 22.2073 12 22.2073C12.73 22.2073 13.4425 22.1308 14.1295 21.9853C14.5345 21.8993 14.794 21.5013 14.708 21.0963C14.6225 20.6913 14.224 20.4318 13.819 20.5178ZM13.2325 3.29325C17.479 3.89275 20.75 7.54626 20.75 11.9573C20.75 15.0773 19.113 17.8183 16.6525 19.3678C16.302 19.5883 16.197 20.0518 16.4175 20.4018C16.638 20.7523 17.1015 20.8573 17.4515 20.6368C20.334 18.8223 22.25 15.6118 22.25 11.9573C22.25 6.78976 18.417 2.51025 13.442 1.80825C13.032 1.75025 12.6525 2.03625 12.5945 2.44575C12.5365 2.85575 12.8225 3.23575 13.2325 3.29325ZM3.88 8.69325C4.8175 6.36575 6.727 4.53275 9.1045 3.69825C9.4955 3.56125 9.701 3.13276 9.564 2.74226C9.427 2.35176 8.9985 2.14576 8.608 2.28276C5.823 3.26026 3.5865 5.40726 2.4885 8.13276C2.334 8.51676 2.52 8.95426 2.904 9.10876C3.288 9.26376 3.725 9.07725 3.88 8.69325Z" fill="#09394D" fill-opacity="0.5"/>
</svg>
