<svg width="24" height="24" viewBox="0 0 24 24" fill="none" xmlns="http://www.w3.org/2000/svg">
<path d="M13.26 19.5H4C3.3372 19.4992 2.70178 19.2356 2.23311 18.7669C1.76444 18.2982 1.50079 17.6628 1.5 17V4C1.50079 3.3372 1.76444 2.70178 2.23311 2.23311C2.70178 1.76444 3.3372 1.50079 4 1.5H17C17.6628 1.50079 18.2982 1.76444 18.7669 2.23311C19.2356 2.70178 19.4992 3.3372 19.5 4V13.11C19.5 13.2426 19.4473 13.3698 19.3536 13.4636C19.2598 13.5573 19.1326 13.61 19 13.61C18.8674 13.61 18.7402 13.5573 18.6464 13.4636C18.5527 13.3698 18.5 13.2426 18.5 13.11V4C18.5 3.60218 18.342 3.22064 18.0607 2.93934C17.7794 2.65804 17.3978 2.5 17 2.5H4C3.60218 2.5 3.22064 2.65804 2.93934 2.93934C2.65804 3.22064 2.5 3.60218 2.5 4V17C2.5 17.3978 2.65804 17.7794 2.93934 18.0607C3.22064 18.342 3.60218 18.5 4 18.5H13.26C13.3926 18.5 13.5198 18.5527 13.6136 18.6464C13.7073 18.7402 13.76 18.8674 13.76 19C13.76 19.1326 13.7073 19.2598 13.6136 19.3536C13.5198 19.4473 13.3926 19.5 13.26 19.5Z" fill="#09394D"/>
<path d="M5.99996 7.50002C5.86736 7.5 5.74021 7.4473 5.64646 7.35352L4.64646 6.35352C4.55538 6.25922 4.50498 6.13292 4.50612 6.00182C4.50726 5.87073 4.55985 5.74532 4.65255 5.65262C4.74525 5.55991 4.87066 5.50733 5.00176 5.50619C5.13286 5.50505 5.25916 5.55545 5.35346 5.64652L6.03696 6.33002L8.18696 4.60952C8.23824 4.56849 8.2971 4.53795 8.36019 4.51966C8.42327 4.50137 8.48933 4.49569 8.55461 4.50293C8.61989 4.51017 8.68311 4.5302 8.74065 4.56187C8.79818 4.59355 8.84892 4.63624 8.88996 4.68752C8.931 4.73881 8.96153 4.79767 8.97982 4.86075C8.99811 4.92383 9.0038 4.9899 8.99656 5.05518C8.98931 5.12046 8.96928 5.18367 8.93761 5.24121C8.90594 5.29875 8.86324 5.34949 8.81196 5.39052L6.31196 7.39052C6.22339 7.46135 6.11337 7.49996 5.99996 7.50002ZM16 6.50002H11.5C11.3674 6.50002 11.2402 6.44735 11.1464 6.35358C11.0526 6.25981 11 6.13263 11 6.00002C11 5.86742 11.0526 5.74024 11.1464 5.64647C11.2402 5.5527 11.3674 5.50002 11.5 5.50002H16C16.1326 5.50002 16.2597 5.5527 16.3535 5.64647C16.4473 5.74024 16.5 5.86742 16.5 6.00002C16.5 6.13263 16.4473 6.25981 16.3535 6.35358C16.2597 6.44735 16.1326 6.50002 16 6.50002Z" fill="#09394D"/>
<path d="M5.99996 7.50002C5.86736 7.5 5.74021 7.4473 5.64646 7.35352L4.64646 6.35352C4.55538 6.25922 4.50498 6.13292 4.50612 6.00182C4.50726 5.87073 4.55985 5.74532 4.65255 5.65262C4.74525 5.55991 4.87066 5.50733 5.00176 5.50619C5.13286 5.50505 5.25916 5.55545 5.35346 5.64652L6.03696 6.33002L8.18696 4.60952C8.23824 4.56849 8.2971 4.53795 8.36019 4.51966C8.42327 4.50137 8.48933 4.49569 8.55461 4.50293C8.61989 4.51017 8.68311 4.5302 8.74065 4.56187C8.79818 4.59355 8.84892 4.63624 8.88996 4.68752C8.931 4.73881 8.96153 4.79767 8.97982 4.86075C8.99811 4.92383 9.0038 4.9899 8.99656 5.05518C8.98931 5.12046 8.96928 5.18367 8.93761 5.24121C8.90594 5.29875 8.86324 5.34949 8.81196 5.39052L6.31196 7.39052C6.22339 7.46135 6.11337 7.49996 5.99996 7.50002ZM16 6.50002H11.5C11.3674 6.50002 11.2402 6.44735 11.1464 6.35358C11.0526 6.25981 11 6.13263 11 6.00002C11 5.86742 11.0526 5.74024 11.1464 5.64647C11.2402 5.5527 11.3674 5.50002 11.5 5.50002H16C16.1326 5.50002 16.2597 5.5527 16.3535 5.64647C16.4473 5.74024 16.5 5.86742 16.5 6.00002C16.5 6.13263 16.4473 6.25981 16.3535 6.35358C16.2597 6.44735 16.1326 6.50002 16 6.50002ZM5.99996 12C5.86736 12 5.74021 11.9473 5.64646 11.8535L4.64646 10.8535C4.55538 10.7592 4.50498 10.6329 4.50612 10.5018C4.50726 10.3707 4.55985 10.2453 4.65255 10.1526C4.74525 10.0599 4.87066 10.0073 5.00176 10.0062C5.13286 10.005 5.25916 10.0554 5.35346 10.1465L6.03696 10.83L8.18696 9.10952C8.29053 9.02664 8.42278 8.9883 8.55461 9.00293C8.68645 9.01756 8.80708 9.08396 8.88996 9.18752C8.97284 9.29109 9.01118 9.42334 8.99656 9.55518C8.98193 9.68702 8.91553 9.80764 8.81196 9.89052L6.31196 11.8905C6.22339 11.9614 6.11337 12 5.99996 12ZM16 11H11.5C11.3674 11 11.2402 10.9473 11.1464 10.8536C11.0526 10.7598 11 10.6326 11 10.5C11 10.3674 11.0526 10.2402 11.1464 10.1465C11.2402 10.0527 11.3674 10 11.5 10H16C16.1326 10 16.2597 10.0527 16.3535 10.1465C16.4473 10.2402 16.5 10.3674 16.5 10.5C16.5 10.6326 16.4473 10.7598 16.3535 10.8536C16.2597 10.9473 16.1326 11 16 11ZM5.99996 16.5C5.86736 16.5 5.74021 16.4473 5.64646 16.3535L4.64646 15.3535C4.55538 15.2592 4.50498 15.1329 4.50612 15.0018C4.50726 14.8707 4.55985 14.7453 4.65255 14.6526C4.74525 14.5599 4.87066 14.5073 5.00176 14.5062C5.13286 14.505 5.25916 14.5554 5.35346 14.6465L6.03696 15.33L8.18696 13.6095C8.29053 13.5266 8.42278 13.4883 8.55461 13.5029C8.68645 13.5176 8.80708 13.584 8.88996 13.6875C8.97284 13.7911 9.01118 13.9233 8.99656 14.0552C8.98193 14.187 8.91553 14.3076 8.81196 14.3905L6.31196 16.3905C6.22339 16.4614 6.11337 16.5 5.99996 16.5ZM13.76 15.5H11.5C11.3674 15.5 11.2402 15.4473 11.1464 15.3536C11.0526 15.2598 11 15.1326 11 15C11 14.8674 11.0526 14.7402 11.1464 14.6465C11.2402 14.5527 11.3674 14.5 11.5 14.5H13.76C13.8926 14.5 14.0197 14.5527 14.1135 14.6465C14.2073 14.7402 14.26 14.8674 14.26 15C14.26 15.1326 14.2073 15.2598 14.1135 15.3536C14.0197 15.4473 13.8926 15.5 13.76 15.5Z" fill="#09394D"/>
<path d="M17.5 22.5C16.5111 22.5 15.5444 22.2068 14.7222 21.6574C13.8999 21.1079 13.259 20.3271 12.8806 19.4134C12.5022 18.4998 12.4031 17.4945 12.5961 16.5246C12.789 15.5546 13.2652 14.6637 13.9645 13.9645C14.6637 13.2652 15.5546 12.789 16.5246 12.5961C17.4945 12.4031 18.4998 12.5022 19.4134 12.8806C20.3271 13.259 21.1079 13.8999 21.6574 14.7222C22.2068 15.5444 22.5 16.5111 22.5 17.5C22.4985 18.8256 21.9713 20.0966 21.0339 21.0339C20.0966 21.9713 18.8256 22.4985 17.5 22.5ZM17.5 13.5C16.7089 13.5 15.9355 13.7346 15.2777 14.1741C14.6199 14.6137 14.1072 15.2384 13.8045 15.9693C13.5017 16.7002 13.4225 17.5044 13.5769 18.2804C13.7312 19.0563 14.1122 19.769 14.6716 20.3284C15.231 20.8878 15.9437 21.2688 16.7196 21.4231C17.4956 21.5775 18.2998 21.4983 19.0307 21.1955C19.7616 20.8928 20.3864 20.3801 20.8259 19.7223C21.2654 19.0645 21.5 18.2911 21.5 17.5C21.4988 16.4395 21.077 15.4228 20.3271 14.6729C19.5772 13.923 18.5605 13.5012 17.5 13.5Z" fill="#09394D"/>
<path d="M17 19.5C16.8674 19.4999 16.7402 19.4472 16.6465 19.3535L15.1465 17.8535C15.0554 17.7592 15.005 17.6329 15.0061 17.5018C15.0073 17.3707 15.0598 17.2453 15.1526 17.1525C15.2453 17.0598 15.3707 17.0073 15.5018 17.0061C15.6329 17.005 15.7592 17.0554 15.8535 17.1465L17 18.293L19.1465 16.1465C19.2408 16.0554 19.3671 16.005 19.4982 16.0061C19.6293 16.0073 19.7547 16.0598 19.8474 16.1525C19.9401 16.2453 19.9927 16.3707 19.9938 16.5018C19.9949 16.6329 19.9445 16.7592 19.8535 16.8535L17.3535 19.3535C17.2597 19.4472 17.1326 19.4999 17 19.5Z" fill="#09394D"/>
</svg>
