<svg width="24" height="29" viewBox="0 0 24 29" fill="none" xmlns="http://www.w3.org/2000/svg">
<path d="M11.9846 28.4363C8.31047 28.4363 4.63638 28.4363 0.96228 28.4363C0.57796 28.4363 0.464202 28.3471 0.393487 27.9659C0.147522 26.6592 -0.0369513 25.3464 0.00301796 24.0151C0.0368381 22.9697 0.212088 21.9582 0.710166 21.0235C1.31585 19.8921 2.26282 19.1634 3.45575 18.7422C4.62715 18.3271 5.83853 18.0719 7.06528 17.8875C7.97842 17.7522 8.60563 17.1342 8.73169 16.2149C8.74091 16.1442 8.75014 16.0735 8.75936 16.0028C8.80548 15.6646 8.73169 15.4002 8.47958 15.1234C7.50801 14.0597 6.92692 12.7745 6.52108 11.4063C6.22592 10.404 6.05682 9.38325 5.98918 8.34097C5.98611 8.27641 5.94306 8.19339 5.8908 8.15343C5.25436 7.64612 4.90386 6.99432 4.8516 6.17648C4.82085 5.68456 4.76243 5.1957 4.73169 4.70685C4.63945 3.26488 5.42346 1.90592 6.73323 1.28179C8.62715 0.380943 10.6133 -0.0925394 12.7163 0.0150701C14.3551 0.101158 15.9077 0.528521 17.365 1.27564C18.7056 1.96434 19.4035 3.34174 19.2436 4.86672C19.1913 5.37095 19.1637 5.87825 19.1083 6.38248C19.0284 7.09578 18.684 7.66764 18.1275 8.11346C18.0322 8.19032 18.0015 8.26718 17.9923 8.38402C17.8601 10.2749 17.4204 12.0827 16.4888 13.7522C16.1598 14.3394 15.7694 14.8836 15.2989 15.3694C15.2621 15.4063 15.2282 15.4616 15.2252 15.5108C15.2036 15.9444 15.2405 16.3717 15.4127 16.7745C15.6894 17.4201 16.2059 17.7645 16.8793 17.8752C18.1644 18.0812 19.4404 18.3271 20.664 18.7914C22.4381 19.4617 23.465 20.7714 23.8308 22.6131C24.0461 23.6953 24.0307 24.7837 23.9046 25.8721C23.8216 26.5823 23.6986 27.2895 23.5849 27.9966C23.5326 28.3225 23.3943 28.4332 23.0653 28.4332C19.3727 28.4363 15.6802 28.4363 11.9846 28.4363ZM10.2659 22.3548C10.1398 22.4686 10.0261 22.5731 9.91539 22.6746C9.61101 22.9543 9.36505 22.9298 9.12216 22.5977C8.24284 21.3925 7.36659 20.1903 6.49034 18.9851C6.42577 18.899 6.36735 18.8713 6.26282 18.8929C5.42346 19.0558 4.59333 19.2557 3.78472 19.5385C2.52416 19.9782 1.63561 20.7991 1.1898 22.072C0.983802 22.6623 0.891565 23.271 0.863894 23.8952C0.811627 25.0789 0.965355 26.2441 1.1652 27.4094C1.18672 27.5324 1.22054 27.5785 1.35582 27.5785C4.18749 27.5754 7.02223 27.5754 9.8539 27.5754C9.90924 27.5754 9.96459 27.5754 10.0261 27.5754C10.0845 27.0896 10.1429 26.6223 10.1983 26.155C10.3243 25.125 10.4504 24.0919 10.5733 23.0589C10.5764 23.0251 10.5764 22.9851 10.5641 22.9543C10.4688 22.7545 10.3704 22.5608 10.2659 22.3548ZM6.89925 8.62383C6.8931 8.65765 6.89003 8.66995 6.89003 8.68532C6.89003 8.72222 6.8931 8.75604 6.89618 8.79293C7.02223 10.0012 7.28357 11.1757 7.75398 12.301C8.18442 13.3341 8.75321 14.2749 9.59564 15.0281C11.0622 16.344 12.9162 16.3502 14.3889 15.0404C14.9238 14.567 15.3481 14.0043 15.7048 13.3894C16.4427 12.1042 16.8454 10.7115 17.0422 9.25104C17.0699 9.04505 17.0883 8.83905 17.1129 8.62691C16.209 8.75296 15.9508 8.71299 15.1329 8.3256C14.2106 7.88901 13.2482 7.61538 12.2244 7.57848C11.0161 7.53544 9.87543 7.82137 8.79933 8.35635C8.19057 8.65765 7.57258 8.78063 6.89925 8.62383ZM22.7886 27.5631C22.8009 27.5047 22.8132 27.4555 22.8193 27.4063C22.8962 26.8836 22.9884 26.364 23.0468 25.8414C23.1637 24.8298 23.1975 23.8183 23.0007 22.8098C22.6963 21.251 21.8385 20.1473 20.3351 19.5846C19.4803 19.2649 18.5918 19.062 17.6971 18.8867C17.5864 18.8652 17.5526 18.9236 17.5034 18.9882C16.6149 20.2057 15.7294 21.4201 14.8408 22.6377C14.641 22.9144 14.3735 22.939 14.1214 22.7115C13.9923 22.5946 13.8662 22.4778 13.7278 22.3517C13.6418 22.5239 13.5526 22.6807 13.485 22.8437C13.4481 22.9328 13.4265 23.0404 13.4358 23.1327C13.5587 24.1903 13.6879 25.248 13.8139 26.3056C13.8631 26.7207 13.9154 27.1357 13.9677 27.56C16.91 27.5631 19.8401 27.5631 22.7886 27.5631ZM18.2628 6.17956C18.3089 5.62921 18.3674 5.10346 18.392 4.57771C18.4442 3.43705 17.9584 2.57003 16.9561 2.04428C15.6126 1.33713 14.1675 0.955885 12.6456 0.879021C10.7117 0.78371 8.88234 1.2203 7.14214 2.04428C6.34583 2.42245 5.82931 3.05581 5.65406 3.92283C5.58642 4.24874 5.60794 4.59309 5.62331 4.93129C5.63868 5.3402 5.68788 5.74605 5.7217 6.16726C9.90617 4.30408 14.0753 4.41784 18.2628 6.17956ZM17.9923 7.00354C13.983 5.30024 9.99533 5.1834 5.99841 6.99124C6.40732 7.66764 7.40348 8.09193 8.27666 7.64612C9.38042 7.08348 10.5518 6.75143 11.797 6.71761C13.1683 6.68071 14.4534 7.01584 15.674 7.62768C16.0522 7.81522 16.4396 7.88286 16.8516 7.79063C17.3251 7.68302 17.7033 7.42168 17.9923 7.00354ZM8.84237 17.9367C8.87004 17.9551 8.88849 17.9643 8.90386 17.9766C9.9031 18.5301 10.9023 19.0804 11.8985 19.6338C11.9876 19.683 12.0461 19.6584 12.1199 19.6154C13.0822 19.0835 14.0445 18.5516 15.0099 18.0197C15.0561 17.992 15.1022 17.9613 15.1544 17.9274C14.6717 17.4263 14.4565 16.8206 14.3735 16.1411C13.6356 16.6238 12.8547 16.8975 11.9876 16.8975C11.1237 16.8975 10.3458 16.6146 9.62639 16.1473C9.37427 17.2418 9.34353 17.3125 8.84237 17.9367ZM13.0976 27.5631C12.9254 26.1457 12.7563 24.7437 12.5872 23.3448C12.1844 23.3448 11.8001 23.3448 11.4096 23.3448C11.2405 24.753 11.0684 26.1519 10.8993 27.5631C11.6371 27.5631 12.3566 27.5631 13.0976 27.5631ZM9.60179 21.7891C10.1614 21.2756 10.7056 20.7776 11.2621 20.2672C10.1983 19.6799 9.15598 19.1019 8.11063 18.527C8.07988 18.5085 8.03069 18.4962 7.99994 18.5085C7.79395 18.5793 7.59103 18.6561 7.37581 18.733C8.1137 19.7507 8.8516 20.7622 9.60179 21.7891ZM14.392 21.7891C15.1391 20.7653 15.88 19.7507 16.6241 18.7299C16.4304 18.6623 16.249 18.61 16.0768 18.5362C15.9846 18.4962 15.92 18.5055 15.837 18.5516C14.9792 19.0281 14.1183 19.5016 13.2574 19.9782C13.0883 20.0704 12.9192 20.1657 12.7348 20.2703C13.2913 20.7806 13.8355 21.2787 14.392 21.7891ZM11.9969 20.7653C11.6556 21.0789 11.3174 21.3863 10.9884 21.6969C10.9638 21.7215 10.9577 21.7922 10.973 21.826C11.0622 22.0166 11.1544 22.2042 11.2559 22.3886C11.2774 22.4286 11.3389 22.4686 11.382 22.4686C11.7909 22.4747 12.1998 22.4747 12.6087 22.4686C12.6518 22.4686 12.7132 22.4286 12.7348 22.3886C12.8362 22.2042 12.9285 22.0166 13.0176 21.826C13.033 21.7922 13.0299 21.7184 13.0053 21.6969C12.6763 21.3863 12.3381 21.0819 11.9969 20.7653Z" fill="#09394D"/>
<path d="M19.6863 22.1427C20.1075 22.1427 20.5257 22.1427 20.9469 22.1427C21.2758 22.1427 21.4388 22.3026 21.4419 22.6285C21.4419 22.9882 21.4388 23.3449 21.4419 23.7046C21.445 23.8829 21.3712 24.0151 21.2297 24.1227C20.2428 24.8545 19.1206 24.8545 18.1306 24.1227C17.9861 24.0151 17.9154 23.8829 17.9184 23.7046C17.9215 23.3418 17.9184 22.979 17.9215 22.6131C17.9246 22.3057 18.0875 22.1427 18.4011 22.1427C18.8254 22.1396 19.2559 22.1427 19.6863 22.1427ZM20.5749 23.0128C19.9692 23.0128 19.3819 23.0128 18.7793 23.0128C18.7793 23.1696 18.7732 23.3172 18.7824 23.4648C18.7855 23.4986 18.8254 23.5447 18.8592 23.5662C19.4065 23.8921 19.9538 23.8891 20.498 23.5601C20.5349 23.5386 20.5656 23.4832 20.5687 23.4433C20.581 23.3049 20.5749 23.1666 20.5749 23.0128Z" fill="#09394D"/>
<path d="M19.6802 25.4294C20.126 25.4294 20.5718 25.4263 21.0176 25.4294C21.2144 25.4324 21.3589 25.537 21.4204 25.7061C21.4819 25.8752 21.4419 26.075 21.2974 26.1796C21.2144 26.238 21.1037 26.2841 21.0023 26.2841C20.1168 26.2933 19.2282 26.2903 18.3428 26.2872C18.0845 26.2872 17.9 26.0935 17.9031 25.8537C17.9062 25.62 18.0907 25.4355 18.3397 25.4325C18.7886 25.4232 19.2344 25.4294 19.6802 25.4294Z" fill="#09394D"/>
<path d="M11.9969 1.56155C12.4181 1.56155 12.8363 1.56155 13.2575 1.56155C13.5957 1.56155 13.7556 1.7245 13.7556 2.0627C13.7556 2.41627 13.7525 2.76985 13.7586 3.12342C13.7617 3.31097 13.6879 3.44318 13.5403 3.55079C12.538 4.27638 11.4681 4.27638 10.4658 3.55693C10.3121 3.44625 10.2321 3.31097 10.2352 3.11727C10.2413 2.75755 10.2352 2.4009 10.2383 2.04118C10.2413 1.7245 10.4043 1.56155 10.724 1.55847C11.1483 1.55847 11.5726 1.56155 11.9969 1.56155ZM11.0991 2.43472C11.0991 2.58845 11.093 2.72988 11.1022 2.87131C11.1053 2.91128 11.1422 2.96354 11.1791 2.98814C11.7202 3.31097 12.2644 3.31404 12.8086 2.99122C12.8424 2.96969 12.8855 2.92665 12.8885 2.89283C12.8978 2.74218 12.8916 2.58845 12.8916 2.43472C12.2859 2.43472 11.6987 2.43472 11.0991 2.43472Z" fill="#09394D"/>
</svg>
