<svg width="16" height="17" viewBox="0 0 16 17" fill="none" xmlns="http://www.w3.org/2000/svg">
<g clip-path="url(#clip0_768_28898)">
<path fill-rule="evenodd" clip-rule="evenodd" d="M12.5101 15.0409H3.47622C2.60321 15.0409 1.8877 14.3254 1.8877 13.4524V3.4532C1.8877 1.59242 5.05124 0.73291 7.99429 0.73291C10.9351 0.73291 14.0986 1.57892 14.0986 3.4532V13.4389C14.0986 14.3254 13.3831 15.0409 12.5101 15.0409ZM7.99429 1.20092C5.19525 1.20092 2.34445 1.98393 2.34445 3.4532V13.4389C2.34445 14.0644 2.85071 14.5729 3.47622 14.5729H12.5101C13.1356 14.5729 13.6441 14.0644 13.6441 13.4389V3.4532C13.6441 2.60719 12.7194 2.08743 11.9521 1.80168C10.9103 1.41017 9.50406 1.20092 7.99429 1.20092Z" fill="#09394D" stroke="#09394D" stroke-width="0.2"/>
<path fill-rule="evenodd" clip-rule="evenodd" d="M9.52882 3.3767H6.45752C6.23701 3.3767 6.04126 3.19444 6.04126 2.97169V2.29443C6.04126 2.06043 6.22351 1.87817 6.45752 1.87817H9.52882C9.76507 1.87817 9.94732 2.06043 9.94732 2.29443V2.97169C9.94732 3.19444 9.76507 3.3767 9.52882 3.3767ZM6.49577 2.91994H9.49056V2.33493H6.49577V2.91994ZM13.8781 9.9243H2.1217C1.9912 9.9243 1.8877 9.8208 1.8877 9.6903C1.8877 9.55979 1.9912 9.45629 2.1217 9.45629H13.8781C14.0086 9.45629 14.1121 9.55979 14.1121 9.6903C14.1121 9.8208 13.9951 9.9243 13.8781 9.9243ZM13.8781 4.40496H2.1217C1.9912 4.40496 1.8877 4.30146 1.8877 4.18221C1.8877 4.06521 1.9912 3.94821 2.1217 3.94821H13.8781C14.0086 3.94821 14.1121 4.05396 14.1121 4.18221C14.1121 4.31271 13.9951 4.40496 13.8781 4.40496Z" fill="#09394D" stroke="#09394D" stroke-width="0.2"/>
<path fill-rule="evenodd" clip-rule="evenodd" d="M7.98081 9.92441C7.8503 9.92441 7.7468 9.82091 7.7468 9.6904V4.17107C7.7468 4.04057 7.8503 3.93481 7.98081 3.93481C8.11131 3.93481 8.20131 4.05407 8.20131 4.17107V9.6904C8.20131 9.82091 8.11131 9.92441 7.98081 9.92441ZM12.9286 9.92441C12.7981 9.92441 12.6924 9.82091 12.6924 9.6904V4.17107C12.6924 4.04057 12.7981 3.93481 12.9286 3.93481C13.0569 3.93481 13.1491 4.05407 13.1491 4.17107V9.6904C13.1491 9.82091 13.0569 9.92441 12.9286 9.92441ZM3.07348 9.92441C2.94298 9.92441 2.83723 9.82091 2.83723 9.6904V4.17107C2.83723 4.04057 2.94298 3.93481 3.07348 3.93481C3.20173 3.93481 3.30748 4.04057 3.30748 4.17107V9.6904C3.29398 9.82091 3.19048 9.92441 3.07348 9.92441ZM4.88251 13.2837H3.57974C3.30748 13.2837 3.08473 13.0632 3.08473 12.7887V11.7852C3.08473 11.5129 3.30748 11.2924 3.57974 11.2924H4.88251C5.15476 11.2924 5.37752 11.5129 5.37752 11.7852V12.7752C5.37752 13.0632 5.15476 13.2837 4.88251 13.2837ZM3.57974 11.7604C3.55499 11.7604 3.54149 11.7852 3.54149 11.7987V12.7887C3.54149 12.8157 3.56624 12.827 3.57974 12.827H4.88251C4.90726 12.827 4.92076 12.8022 4.92076 12.7887V11.7852C4.92076 11.7739 4.90726 11.7469 4.88251 11.7469H3.57974V11.7604ZM12.4201 13.2837H11.1174C10.8451 13.2837 10.6223 13.0632 10.6223 12.7887V11.7852C10.6223 11.5129 10.8451 11.2924 11.1174 11.2924H12.4201C12.6924 11.2924 12.9151 11.5129 12.9151 11.7852V12.7752C12.9151 13.0632 12.6924 13.2837 12.4201 13.2837ZM11.1174 11.7604C11.0926 11.7604 11.0791 11.7852 11.0791 11.7987V12.7887C11.0791 12.8157 11.1061 12.827 11.1174 12.827H12.4201C12.4471 12.827 12.4584 12.8022 12.4584 12.7887V11.7852C12.4584 11.7739 12.4471 11.7469 12.4201 11.7469H11.1174V11.7604ZM9.98559 11.4859H6.01428C5.88377 11.4859 5.78027 11.3824 5.78027 11.2519C5.78027 11.1214 5.88377 11.0179 6.01428 11.0179H9.98559C10.1161 11.0179 10.2196 11.1214 10.2196 11.2519C10.2196 11.3824 10.1161 11.4859 9.98559 11.4859ZM9.25658 12.4759H6.74329C6.61278 12.4759 6.50928 12.3724 6.50928 12.2419C6.50928 12.1114 6.61278 12.0079 6.74329 12.0079H9.25658C9.38708 12.0079 9.49058 12.1114 9.49058 12.2419C9.49058 12.3724 9.37358 12.4759 9.25658 12.4759ZM8.51406 13.466H7.4858C7.3553 13.466 7.25179 13.3625 7.25179 13.232C7.25179 13.1015 7.3553 12.998 7.4858 12.998H8.51406C8.64457 12.998 8.74807 13.1015 8.74807 13.232C8.74807 13.3625 8.64457 13.466 8.51406 13.466ZM14.6072 8.46638H13.8781C13.7476 8.46638 13.6441 8.36288 13.6441 8.23238C13.6441 8.10188 13.7476 7.99838 13.8781 7.99838H14.6072C14.8817 7.99838 15.1157 7.76437 15.1157 7.48987V6.3446C15.1157 6.0701 14.8929 5.83609 14.6072 5.83609H13.8781C13.7476 5.83609 13.6441 5.73259 13.6441 5.60209C13.6441 5.47159 13.7476 5.36809 13.8781 5.36809H14.6072C15.1404 5.36809 15.5702 5.79784 15.5702 6.3311V7.47637C15.5567 8.03663 15.1269 8.46638 14.6072 8.46638ZM2.12171 8.46638H1.3927C0.859444 8.46638 0.429688 8.03663 0.429688 7.50337V6.3581C0.429688 5.82259 0.859444 5.39509 1.3927 5.39509H2.12171C2.25222 5.39509 2.35572 5.49859 2.35572 5.62909C2.35572 5.75959 2.25222 5.86309 2.12171 5.86309H1.3927C1.12045 5.86309 0.884195 6.0971 0.884195 6.36935V7.51687C0.884195 7.80262 1.12045 8.02313 1.3927 8.02313H2.12171C2.25222 8.02313 2.35572 8.12888 2.35572 8.25713C2.35572 8.38763 2.25222 8.46638 2.12171 8.46638ZM5.06476 16.7465H4.76551C4.167 16.7465 3.67199 16.2515 3.67199 15.653V14.7935C3.67199 14.663 3.77549 14.5595 3.90599 14.5595C4.03649 14.5595 4.14 14.663 4.14 14.7935V15.653C4.14 16.004 4.42575 16.2898 4.77901 16.2898H5.07826C5.41577 16.2898 5.70152 16.004 5.70152 15.653V14.7935C5.70152 14.663 5.80727 14.5595 5.93552 14.5595C6.06603 14.5595 6.17178 14.663 6.17178 14.7935V15.653C6.14478 16.265 5.66327 16.7465 5.06476 16.7465ZM11.2344 16.7465H10.9351C10.3366 16.7465 9.85509 16.2515 9.85509 15.653V14.7935C9.85509 14.663 9.95859 14.5595 10.0891 14.5595C10.2196 14.5595 10.3231 14.663 10.3231 14.7935V15.653C10.3231 16.004 10.6111 16.2898 10.9486 16.2898H11.2479C11.5989 16.2898 11.8869 16.004 11.8869 15.653V14.7935C11.8869 14.663 11.9904 14.5595 12.1209 14.5595C12.2514 14.5595 12.3549 14.663 12.3549 14.7935V15.653C12.3166 16.265 11.8351 16.7465 11.2344 16.7465Z" fill="#09394D" stroke="#09394D" stroke-width="0.2"/>
</g>
<defs>
<clipPath id="clip0_768_28898">
<rect width="16" height="16" fill="white" transform="translate(0 0.739746)"/>
</clipPath>
</defs>
</svg>
