<svg width="30" height="30" viewBox="0 0 30 30" fill="none" xmlns="http://www.w3.org/2000/svg">
<g clip-path="url(#clip0_467_30307)">
<path d="M0 15.8834C0 15.2964 0 14.7095 0 14.1225C0.0146735 14.0198 0.0366838 13.9171 0.0513573 13.8144C0.146735 13.1688 0.198092 12.5158 0.337491 11.8775C1.12252 8.27515 2.97139 5.32578 5.90609 3.10274C9.55979 0.33678 13.6684 -0.580314 18.1511 0.351454C21.7388 1.0998 24.6515 2.97801 26.8819 5.88337C29.2883 9.01616 30.2935 12.5818 29.9193 16.507C29.6112 19.6838 28.3786 22.4938 26.2583 24.8929C23.9325 27.5195 21.0418 29.1556 17.5789 29.7719C17.0139 29.8746 16.4417 29.9259 15.8767 30.0066C15.2898 30.0066 14.7029 30.0066 14.1159 30.0066C14.0426 29.992 13.9692 29.9626 13.8885 29.9553C11.5407 29.7865 9.34703 29.1189 7.34409 27.8936C3.45561 25.5092 1.06383 22.0829 0.227439 17.5855C0.132062 17.0206 0.0733676 16.4483 0 15.8834ZM15.0037 2.33238C8.01908 2.32504 2.34776 7.99636 2.33309 14.9883C2.31842 21.9655 7.98239 27.6442 14.9817 27.6662C21.9663 27.6882 27.6742 21.9876 27.6669 14.9956C27.6669 8.00369 21.9956 2.33972 15.0037 2.33238Z" fill="#09394D"/>
<path d="M13.8353 11.5912C13.8353 10.4613 13.828 9.32414 13.8353 8.19428C13.8426 7.30653 14.6277 6.7416 15.4127 7.03507C15.8896 7.21849 16.1684 7.64402 16.1684 8.2383C16.1684 10.2192 16.1757 12.2002 16.161 14.1811C16.161 14.4232 16.2344 14.5626 16.4325 14.7093C17.7164 15.6631 19.0004 16.6242 20.277 17.5853C20.7318 17.9302 20.9006 18.385 20.7685 18.8619C20.5411 19.669 19.6387 19.9844 18.9417 19.4782C18.208 18.95 17.489 18.3924 16.7627 17.8495C15.9923 17.2698 15.2219 16.6829 14.4442 16.1106C14.0187 15.8025 13.8353 15.4063 13.8353 14.8854C13.8353 13.7996 13.8353 12.699 13.8353 11.5912Z" fill="#09394D"/>
</g>
<defs>
<clipPath id="clip0_467_30307">
<rect width="30" height="30" fill="white"/>
</clipPath>
</defs>
</svg>
