<svg width="18" height="20" viewBox="0 0 18 20" fill="none" xmlns="http://www.w3.org/2000/svg">
<path d="M1.37148 17.426H10.4402C11.6202 19.0431 13.8929 19.3927 15.51 18.2345C17.1271 17.0545 17.4767 14.7819 16.3185 13.1648C15.9195 12.6149 15.3741 12.1881 14.7443 11.9331C14.1145 11.6781 13.4258 11.6051 12.7566 11.7226C11.9699 10.4988 10.768 9.60289 9.36946 9.16583C11.4891 8.07319 12.3195 5.45094 11.2051 3.33123C10.0906 1.21153 7.49018 0.381173 5.37047 1.49563C3.25076 2.61008 2.44227 5.21051 3.53486 7.33018C3.95006 8.11686 4.58379 8.75059 5.37047 9.16579C2.77004 9.97433 1 12.3781 1 15.0878V17.0326C1 17.2511 1.17481 17.426 1.37148 17.426ZM12.6691 12.531C14.1988 12.1377 15.7504 13.0773 16.1437 14.607C16.537 16.1367 15.5974 17.6882 14.0677 18.0816C12.2758 18.5186 10.5276 17.1419 10.5276 15.2845C10.5276 13.9733 11.4017 12.837 12.6691 12.531ZM3.81896 5.36347C3.81896 3.39676 5.39233 1.80154 7.35904 1.80154C9.32574 1.80154 10.921 3.3749 10.921 5.34161C10.921 7.30832 9.3476 8.90354 7.35904 8.90354C5.41419 8.90354 3.81896 7.30836 3.81896 5.36347ZM1.76483 15.0878C1.76483 12.094 4.19045 9.66837 7.20608 9.64651H7.57757C9.32575 9.64651 10.9865 10.4988 12.0136 11.941C10.7025 12.4873 9.78466 13.7985 9.78466 15.2844C9.78466 15.7214 9.87209 16.2022 10.0469 16.6611H1.76483V15.0878Z" fill="#09394D" stroke="#09394D" stroke-width="0.3"/>
<path d="M11.9043 15.6778H12.997V16.7705C12.997 16.989 13.1718 17.1638 13.3903 17.1638C13.6088 17.1638 13.7837 16.989 13.7837 16.7705V15.6778H14.8763C15.0948 15.6778 15.2696 15.503 15.2696 15.2845C15.2696 15.0659 15.0948 14.8911 14.8763 14.8911H13.7837V13.8203C13.7837 13.6018 13.6088 13.427 13.3903 13.427C13.1718 13.427 12.997 13.6018 12.997 13.8203V14.8911H11.9043C11.6858 14.8911 11.511 15.0659 11.511 15.2845C11.511 15.503 11.6858 15.6778 11.9043 15.6778Z" fill="#09394D" stroke="#09394D" stroke-width="0.3"/>
</svg>
