<svg width="26" height="26" viewBox="0 0 26 26" fill="none" xmlns="http://www.w3.org/2000/svg">
<rect width="26" height="26" rx="4" fill="#09394D"/>
<path d="M12.1666 12.3337H12.3333V12.167V9.00033H13.6666V12.167V12.3337H13.8333H17V13.667H13.8333H13.6666V13.8337V17.0003H12.3333V13.8337V13.667H12.1666H8.99996V12.3337H12.1666ZM13 21.167C8.48963 21.167 4.83329 17.5106 4.83329 13.0003C4.83329 8.49 8.48963 4.83366 13 4.83366C17.5102 4.83366 21.1666 8.49 21.1666 13.0003C21.1666 17.5106 17.5102 21.167 13 21.167ZM13 19.8337C16.7739 19.8337 19.8333 16.7743 19.8333 13.0003C19.8333 9.22638 16.7739 6.16699 13 6.16699C9.22601 6.16699 6.16663 9.22638 6.16663 13.0003C6.16663 16.7743 9.22601 19.8337 13 19.8337Z" fill="white" stroke="white" stroke-width="0.333333"/>
</svg>
