<svg width="30" height="30" viewBox="0 0 30 30" fill="none" xmlns="http://www.w3.org/2000/svg">
<g clip-path="url(#clip0_467_30138)">
<path fill-rule="evenodd" clip-rule="evenodd" d="M23.9377 4.08726C21.3064 1.45296 17.8071 0.00153809 14.0791 0C6.39728 0 0.145361 6.25175 0.142285 13.9356C0.14123 16.3919 0.782876 18.7897 2.00253 20.9032L0.0253906 28.125L7.41352 26.1869C9.44924 27.2974 11.7411 27.8826 14.0734 27.8833H14.0793C21.7603 27.8833 28.0129 21.6311 28.0158 13.9468C28.0174 10.2228 26.5691 6.72143 23.9377 4.08726ZM14.0791 25.5296H14.0743C11.9958 25.5287 9.95733 24.9702 8.17856 23.9149L7.75581 23.6638L3.37156 24.8139L4.54174 20.5394L4.2662 20.1011C3.10666 18.2568 2.49433 16.1252 2.49538 13.9365C2.4978 7.5498 7.69433 2.3538 14.0838 2.3538C17.1778 2.35481 20.0862 3.56124 22.2732 5.75077C24.4601 7.9403 25.6638 10.8507 25.6628 13.9459C25.6601 20.333 20.4639 25.5296 14.0791 25.5296ZM20.433 16.854C20.0848 16.6796 18.3727 15.8374 18.0534 15.7211C17.7344 15.6048 17.502 15.547 17.2701 15.8955C17.0378 16.2439 16.3706 17.0284 16.1673 17.2607C15.9641 17.4931 15.7612 17.5223 15.4129 17.3479C15.0646 17.1736 13.9426 16.8058 12.6124 15.6194C11.5773 14.6961 10.8785 13.5557 10.6752 13.2073C10.4723 12.8584 10.6735 12.6881 10.828 12.4965C11.2049 12.0284 11.5824 11.5377 11.6985 11.3054C11.8147 11.0729 11.7565 10.8696 11.6693 10.6953C11.5824 10.5211 10.886 8.80703 10.5959 8.10958C10.313 7.43084 10.0262 7.52247 9.81227 7.51188C9.60938 7.50172 9.37712 7.49966 9.14487 7.49966C8.91276 7.49966 8.53544 7.58667 8.21618 7.93551C7.89705 8.28417 6.99758 9.12651 6.99758 10.8406C6.99758 12.5546 8.24536 14.2104 8.41943 14.4428C8.59345 14.6753 10.875 18.1926 14.3682 19.7008C15.199 20.06 15.8475 20.274 16.3534 20.4345C17.1877 20.6996 17.9466 20.6622 18.5467 20.5725C19.2159 20.4724 20.6069 19.73 20.8973 18.9166C21.1874 18.1032 21.1874 17.4061 21.1002 17.2607C21.0134 17.1155 20.7811 17.0284 20.433 16.854Z" fill="#09394D"/>
</g>
<defs>
<clipPath id="clip0_467_30138">
<rect width="30" height="30" fill="white"/>
</clipPath>
</defs>
</svg>
