<svg width="26" height="26" viewBox="0 0 26 26" fill="none" xmlns="http://www.w3.org/2000/svg">
<rect width="26" height="26" rx="4" fill="#09394D"/>
<path d="M21 7.47121C21 10.126 21 12.7808 21 15.4359C20.9921 15.4491 20.9799 15.4616 20.9771 15.476C20.7847 16.3979 20.1626 16.9148 19.2387 16.9152C15.9678 16.9158 12.6968 16.9158 9.42589 16.9145C9.30134 16.9145 9.17459 16.9129 9.05255 16.8901C8.20925 16.7325 7.66368 16.0392 7.66305 15.1248C7.6618 12.6832 7.6618 10.2419 7.66305 7.80033C7.66368 6.73173 8.37772 6.00061 9.41773 6.00029C10.6366 5.99964 11.8554 6.00029 13.0739 6.00029C15.1467 6.00029 17.2198 5.99932 19.2927 6.00093C20.0585 6.00157 20.6878 6.46234 20.9175 7.18512C20.9479 7.2792 20.9727 7.37584 21 7.47121ZM8.99859 14.1364C9.06322 14.0745 9.10463 14.0372 9.14322 13.9977C9.68472 13.4442 10.2259 12.8896 10.7674 12.3361C11.3224 11.7687 12.0038 11.7661 12.5582 12.3319C12.8013 12.5801 13.0385 12.8338 13.2901 13.0971C13.5687 12.7554 13.8313 12.433 14.0942 12.1103C14.6441 11.4351 15.1935 10.7589 15.7444 10.0846C16.05 9.71051 16.4346 9.54835 16.9096 9.64564C17.1913 9.70312 17.4144 9.85853 17.5998 10.0807C18.2486 10.8591 18.9008 11.6345 19.5502 12.4125C19.5785 12.4465 19.5916 12.4937 19.612 12.5348C19.6293 12.5204 19.6465 12.5059 19.6638 12.4915C19.6638 12.4385 19.6638 12.3858 19.6638 12.3329C19.6638 10.8298 19.6638 9.32712 19.6638 7.82409C19.6638 7.46736 19.5665 7.3675 19.2196 7.36718C15.9596 7.36718 12.7 7.36718 9.44001 7.36718C9.10306 7.36718 8.99891 7.47281 8.99859 7.81285C8.99859 9.85949 8.99859 11.9058 8.99859 13.9525C8.99859 14.0035 8.99859 14.0542 8.99859 14.1364Z" fill="white"/>
<path d="M18.8433 17.9385C18.6357 18.6173 18.4383 19.2669 18.2379 19.9155C18.0546 20.5076 17.66 20.8736 17.0667 20.9783C16.8436 21.0174 16.5939 21.0014 16.3743 20.9417C12.9675 20.0179 9.56389 19.0838 6.15962 18.1501C5.28808 17.9109 4.81372 17.0536 5.06878 16.1783C5.57514 14.4399 6.08558 12.7028 6.59476 10.965C6.6048 10.9307 6.61735 10.897 6.65468 10.8629C6.65719 10.9159 6.66158 10.9692 6.66158 11.0222C6.6619 12.4559 6.65876 13.8892 6.66284 15.3229C6.66629 16.5787 7.46943 17.6184 8.64121 17.8775C8.85266 17.9244 9.07478 17.9356 9.2922 17.9359C12.4009 17.9395 15.5097 17.9385 18.6181 17.9385C18.6849 17.9385 18.7517 17.9385 18.8433 17.9385Z" fill="white"/>
<path d="M10.9993 10.7722C10.2651 10.7735 9.66716 10.1676 9.66214 9.41723C9.65712 8.66651 10.2651 8.04488 11.0024 8.04713C11.7327 8.04937 12.3323 8.66555 12.3313 9.41241C12.3304 10.1612 11.7331 10.7709 10.9993 10.7722Z" fill="white"/>
</svg>
